<svg width="397" height="275" viewBox="0 0 397 275" fill="none" xmlns="http://www.w3.org/2000/svg">
<path d="M79.1008 91.5037C84.0288 91.5037 88.24 92.4445 91.7344 94.3261C95.2736 96.2077 97.9616 98.9405 99.7984 102.525C101.68 106.064 102.621 110.275 102.621 115.158C102.621 120.041 101.68 124.275 99.7984 127.859C97.9616 131.398 95.2736 134.108 91.7344 135.99C88.24 137.872 84.0288 138.812 79.1008 138.812H63.4432V91.5037H79.1008ZM78.3616 131.689C83.648 131.689 87.6576 130.256 90.3904 127.389C93.1232 124.521 94.4896 120.444 94.4896 115.158C94.4896 109.872 93.1232 105.795 90.3904 102.928C87.6576 100.06 83.648 98.6269 78.3616 98.6269H71.44V131.689H78.3616ZM138.365 104.54L119.885 151.648H111.687L116.996 138.14L103.825 104.54H112.09L121.095 129.068L130.1 104.54H138.365ZM163.443 138.812V134.848C162.547 136.147 161.203 137.267 159.411 138.208C157.664 139.148 155.625 139.619 153.296 139.619C149.712 139.619 146.71 138.521 144.291 136.326C141.917 134.086 140.729 130.726 140.729 126.246V104.54H148.39V124.835C148.39 127.433 149.017 129.405 150.272 130.749C151.526 132.048 153.229 132.697 155.379 132.697C157.529 132.697 159.366 132.003 160.889 130.614C162.413 129.225 163.174 127.164 163.174 124.432V104.54H170.835V138.812H163.443ZM215.66 103.734C217.765 103.734 219.736 104.204 221.573 105.145C223.41 106.041 224.888 107.475 226.008 109.446C227.173 111.373 227.756 113.814 227.756 116.771V138.812H220.095V118.115C220.095 115.651 219.468 113.792 218.213 112.537C217.004 111.283 215.436 110.656 213.509 110.656C211.538 110.656 209.858 111.328 208.469 112.672C207.125 114.016 206.453 115.875 206.453 118.249V138.812H198.792V118.115C198.792 115.651 198.165 113.792 196.911 112.537C195.701 111.283 194.133 110.656 192.207 110.656C190.236 110.656 188.556 111.328 187.167 112.672C185.778 114.016 185.084 115.875 185.084 118.249V138.812H177.423V104.54H184.815V108.505C185.8 107.072 187.144 105.929 188.847 105.078C190.594 104.182 192.476 103.734 194.492 103.734C196.508 103.734 198.412 104.204 200.204 105.145C202.04 106.041 203.496 107.408 204.572 109.244C205.736 107.587 207.282 106.265 209.208 105.28C211.18 104.249 213.33 103.734 215.66 103.734ZM241.721 138.812H234.06V104.54H241.721V138.812ZM237.89 89.6893C239.234 89.6893 240.354 90.1373 241.25 91.0333C242.191 91.9293 242.661 93.0269 242.661 94.3261C242.661 95.6701 242.191 96.7901 241.25 97.6861C240.354 98.5821 239.234 99.0301 237.89 99.0301C236.591 99.0301 235.471 98.5821 234.53 97.6861C233.634 96.7901 233.186 95.6701 233.186 94.3261C233.186 93.0269 233.634 91.9293 234.53 91.0333C235.471 90.1373 236.591 89.6893 237.89 89.6893ZM270.813 138.812V134.848C269.917 136.147 268.573 137.267 266.781 138.208C265.034 139.148 262.996 139.619 260.666 139.619C257.082 139.619 254.081 138.521 251.661 136.326C249.287 134.086 248.1 130.726 248.1 126.246V104.54H255.761V124.835C255.761 127.433 256.388 129.405 257.642 130.749C258.897 132.048 260.599 132.697 262.749 132.697C264.9 132.697 266.737 132.003 268.26 130.614C269.783 129.225 270.545 127.164 270.545 124.432V104.54H278.205V138.812H270.813ZM323.03 103.734C325.136 103.734 327.107 104.204 328.944 105.145C330.78 106.041 332.259 107.475 333.379 109.446C334.544 111.373 335.126 113.814 335.126 116.771V138.812H327.465V118.115C327.465 115.651 326.838 113.792 325.584 112.537C324.374 111.283 322.806 110.656 320.88 110.656C318.908 110.656 317.228 111.328 315.84 112.672C314.496 114.016 313.824 115.875 313.824 118.249V138.812H306.163V118.115C306.163 115.651 305.536 113.792 304.281 112.537C303.072 111.283 301.504 110.656 299.577 110.656C297.606 110.656 295.926 111.328 294.537 112.672C293.148 114.016 292.454 115.875 292.454 118.249V138.812H284.793V104.54H292.185V108.505C293.171 107.072 294.515 105.929 296.217 105.078C297.964 104.182 299.846 103.734 301.862 103.734C303.878 103.734 305.782 104.204 307.574 105.145C309.411 106.041 310.867 107.408 311.942 109.244C313.107 107.587 314.652 106.265 316.579 105.28C318.55 104.249 320.7 103.734 323.03 103.734Z" fill="#000815"/>
<path d="M87.0298 161.826C87.0298 161.826 242.833 158.987 303.5 158.82C364.167 158.653 33.2171 161.062 106.53 184.826C153.383 200.013 192 197.5 234 181.734" stroke="#000815" stroke-width="2" stroke-linecap="round"/>
</svg>
