<?xml version="1.0" standalone="no"?>
<!DOCTYPE svg PUBLIC "-//W3C//DTD SVG 20010904//EN"
 "http://www.w3.org/TR/2001/REC-SVG-20010904/DTD/svg10.dtd">
<svg version="1.0" xmlns="http://www.w3.org/2000/svg"
 width="3000.000000pt" height="3000.000000pt" viewBox="0 0 3000.000000 3000.000000"
 preserveAspectRatio="xMidYMid meet">

<g transform="translate(0.000000,3000.000000) scale(0.100000,-0.100000)"
fill="#000000" stroke="none">
<path d="M14728 23373 c-10 -2 -18 -9 -18 -14 0 -5 -53 -9 -120 -9 -100 0
-120 -2 -120 -15 0 -12 -16 -15 -84 -15 -65 0 -85 -3 -90 -15 -4 -11 -21 -15
-60 -15 -31 0 -56 -5 -58 -11 -2 -6 -28 -14 -58 -17 -30 -2 -58 -9 -61 -15 -4
-5 -31 -12 -60 -15 -29 -3 -59 -11 -67 -18 -7 -8 -26 -14 -42 -14 -16 0 -30
-5 -32 -11 -2 -5 -22 -13 -46 -16 -23 -3 -42 -9 -42 -14 0 -5 -18 -12 -40 -15
-22 -4 -40 -10 -40 -14 0 -4 -16 -11 -35 -14 -19 -4 -35 -11 -35 -16 0 -6 -11
-10 -25 -10 -14 0 -28 -6 -31 -14 -3 -7 -23 -16 -45 -20 -21 -3 -39 -11 -39
-16 0 -6 -9 -10 -19 -10 -11 0 -26 -6 -33 -13 -7 -8 -26 -17 -41 -21 -15 -3
-27 -10 -27 -15 0 -5 -13 -12 -30 -16 -16 -4 -30 -11 -30 -16 0 -5 -5 -9 -11
-9 -6 0 -17 -7 -25 -15 -9 -8 -24 -15 -35 -15 -10 0 -19 -7 -19 -15 0 -10 -10
-15 -30 -15 -20 0 -30 -5 -30 -15 0 -13 -122 -15 -1039 -15 -745 0 -1040 -3
-1043 -11 -2 -7 -47 -13 -113 -16 -61 -3 -113 -10 -116 -16 -4 -5 -31 -12 -60
-15 -30 -3 -57 -9 -60 -15 -4 -5 -30 -12 -58 -15 -28 -2 -51 -8 -51 -13 0 -4
-16 -11 -35 -15 -19 -3 -35 -10 -35 -14 0 -4 -18 -10 -40 -14 -22 -3 -40 -10
-40 -15 0 -5 -13 -12 -30 -16 -16 -4 -30 -10 -30 -15 0 -5 -13 -11 -30 -15
-16 -4 -30 -10 -30 -15 0 -4 -11 -11 -25 -14 -14 -4 -25 -11 -25 -16 0 -6 -9
-10 -20 -10 -11 0 -20 -7 -20 -15 0 -9 -9 -15 -25 -15 -16 0 -25 -6 -25 -15 0
-8 -9 -15 -20 -15 -11 0 -20 -7 -20 -15 0 -9 -9 -15 -25 -15 -16 0 -25 -6 -25
-15 0 -8 -7 -15 -15 -15 -8 0 -15 -7 -15 -15 0 -8 -6 -15 -14 -15 -8 0 -16 -7
-20 -15 -3 -8 -14 -15 -25 -15 -10 0 -21 -7 -25 -15 -3 -8 -12 -15 -21 -15 -8
0 -15 -7 -15 -15 0 -8 -7 -15 -15 -15 -8 0 -15 -7 -15 -15 0 -8 -7 -15 -15
-15 -8 0 -15 -5 -15 -11 0 -6 -13 -24 -30 -41 -16 -16 -30 -36 -30 -44 0 -8
-7 -14 -15 -14 -8 0 -15 -5 -15 -10 0 -6 -11 -21 -24 -33 -14 -13 -28 -35 -31
-50 -4 -15 -11 -27 -16 -27 -5 0 -9 -7 -9 -15 0 -8 -6 -15 -14 -15 -8 0 -17
-11 -20 -25 -4 -14 -11 -25 -16 -25 -6 0 -10 -9 -10 -20 0 -11 -7 -20 -15 -20
-10 0 -15 -10 -15 -30 0 -20 -5 -30 -15 -30 -10 0 -15 -10 -15 -30 0 -20 -5
-30 -15 -30 -9 0 -15 -10 -15 -26 0 -14 -7 -32 -15 -40 -8 -9 -15 -29 -15 -45
0 -19 -5 -29 -15 -29 -11 0 -15 -12 -15 -45 0 -33 -4 -45 -15 -45 -11 0 -15
-13 -15 -54 0 -33 -5 -56 -12 -58 -7 -3 -14 -32 -16 -74 -3 -38 -10 -72 -16
-76 -16 -10 -16 -4766 0 -4776 6 -4 14 -43 17 -87 3 -44 11 -81 16 -83 6 -2
11 -19 11 -37 0 -19 7 -40 15 -49 8 -8 15 -32 15 -55 0 -30 4 -41 15 -41 10 0
15 -10 15 -29 0 -16 7 -36 15 -45 8 -8 15 -26 15 -39 0 -14 7 -27 15 -31 8 -3
15 -17 15 -31 0 -16 6 -25 15 -25 10 0 15 -10 15 -30 0 -20 5 -30 15 -30 8 0
15 -9 15 -20 0 -11 4 -20 10 -20 5 0 12 -11 16 -25 3 -14 10 -25 14 -25 5 0
11 -13 15 -30 4 -16 13 -30 21 -30 8 0 14 -5 14 -11 0 -7 11 -22 25 -35 14
-13 25 -28 25 -34 0 -5 7 -10 15 -10 8 0 15 -6 15 -14 0 -8 14 -28 30 -44 17
-17 30 -35 30 -41 0 -6 7 -11 15 -11 8 0 15 -7 15 -15 0 -8 7 -15 15 -15 8 0
15 -7 15 -15 0 -8 7 -15 15 -15 8 0 15 -7 15 -15 0 -8 7 -15 15 -15 8 0 15 -7
15 -15 0 -9 9 -15 25 -15 14 0 28 -7 31 -15 4 -8 12 -15 20 -15 8 0 14 -7 14
-15 0 -8 7 -15 15 -15 8 0 15 -7 15 -15 0 -9 9 -15 25 -15 16 0 25 -6 25 -15
0 -8 9 -15 20 -15 11 0 20 -7 20 -15 0 -9 9 -15 25 -15 16 0 25 -6 25 -15 0
-8 9 -15 20 -15 11 0 20 -4 20 -10 0 -5 11 -12 25 -16 14 -3 25 -10 25 -14 0
-5 14 -11 30 -15 17 -4 30 -10 30 -15 0 -5 14 -11 30 -15 32 -7 38 -25 17 -47
-8 -7 -17 -26 -21 -41 -3 -15 -11 -27 -16 -27 -6 0 -10 -9 -10 -20 0 -11 -7
-20 -15 -20 -9 0 -15 -9 -15 -25 0 -16 -6 -25 -15 -25 -10 0 -15 -10 -15 -30
0 -20 -5 -30 -15 -30 -10 0 -15 -10 -15 -30 0 -20 -5 -30 -15 -30 -10 0 -15
-10 -15 -30 0 -16 -4 -30 -10 -30 -5 0 -13 -12 -16 -27 -4 -15 -13 -34 -21
-41 -7 -7 -13 -22 -13 -33 0 -10 -4 -19 -10 -19 -5 0 -13 -18 -16 -40 -4 -22
-10 -40 -14 -40 -5 0 -11 -13 -15 -30 -4 -16 -11 -30 -16 -30 -5 0 -9 -13 -9
-30 0 -20 -5 -30 -15 -30 -11 0 -15 -11 -15 -40 0 -27 -5 -43 -15 -46 -10 -4
-15 -20 -15 -45 0 -26 -5 -42 -15 -45 -10 -4 -15 -20 -15 -45 0 -26 -5 -42
-15 -45 -11 -5 -15 -21 -15 -60 0 -41 -4 -54 -15 -54 -12 0 -15 -14 -15 -70 0
-56 -3 -70 -15 -70 -12 0 -15 -15 -15 -74 0 -51 -4 -76 -12 -78 -10 -4 -13
-68 -13 -278 0 -210 3 -274 13 -277 8 -3 12 -25 12 -64 0 -46 3 -59 15 -59 12
0 15 -13 15 -55 0 -42 3 -55 15 -55 11 0 15 -12 15 -45 0 -33 4 -45 15 -45 10
0 15 -10 15 -30 0 -20 5 -30 15 -30 10 0 15 -10 15 -30 0 -20 5 -30 15 -30 10
0 15 -10 15 -30 0 -20 5 -30 15 -30 8 0 15 -7 15 -15 0 -8 5 -15 10 -15 6 0
10 -6 10 -14 0 -8 6 -21 14 -28 7 -8 17 -25 21 -38 4 -13 18 -33 31 -45 13
-12 24 -27 24 -34 0 -6 7 -11 15 -11 8 0 15 -7 15 -15 0 -9 6 -18 14 -21 8 -3
17 -16 20 -30 4 -13 11 -24 16 -24 6 0 10 -7 10 -15 0 -8 7 -15 15 -15 8 0 15
-7 15 -15 0 -8 5 -15 11 -15 7 0 22 -11 34 -24 12 -13 31 -27 43 -30 11 -4 23
-13 26 -21 3 -8 12 -15 21 -15 8 0 15 -7 15 -15 0 -8 7 -15 15 -15 8 0 15 -4
15 -9 0 -5 11 -12 25 -15 14 -4 25 -11 25 -16 0 -6 7 -10 15 -10 9 0 18 -6 21
-14 3 -8 16 -17 30 -20 13 -4 24 -11 24 -16 0 -6 9 -10 19 -10 11 0 26 -7 34
-15 8 -7 26 -17 41 -21 14 -3 26 -10 26 -15 0 -5 14 -9 30 -9 20 0 30 -5 30
-15 0 -11 11 -15 40 -15 29 0 40 -4 40 -15 0 -11 12 -15 50 -15 38 0 50 -4 50
-15 0 -12 16 -15 85 -15 69 0 85 -3 85 -15 0 -13 65 -15 526 -15 555 0 554 0
554 -44 0 -9 7 -16 15 -16 9 0 15 -9 15 -25 0 -14 7 -28 15 -31 8 -4 15 -12
15 -20 0 -8 6 -14 14 -14 8 0 17 -11 20 -25 4 -14 11 -25 16 -25 6 0 10 -7 10
-15 0 -8 7 -15 15 -15 8 0 15 -7 15 -15 0 -8 7 -15 15 -15 8 0 15 -7 15 -15 0
-8 7 -15 15 -15 8 0 15 -6 15 -14 0 -8 11 -17 25 -20 14 -4 25 -11 25 -16 0
-6 9 -10 20 -10 11 0 20 -7 20 -15 0 -8 7 -15 15 -15 8 0 15 -7 15 -15 0 -9 9
-15 25 -15 16 0 25 -6 25 -15 0 -10 10 -15 30 -15 20 0 30 -5 30 -15 0 -8 7
-15 16 -15 8 0 22 -7 30 -15 9 -8 29 -15 45 -15 19 0 29 -5 29 -15 0 -11 11
-15 40 -15 22 0 40 -4 40 -9 0 -6 21 -13 48 -17 26 -4 50 -12 54 -18 10 -16
3816 -16 3826 0 4 6 33 14 65 18 31 4 57 11 57 15 0 5 19 11 41 14 23 3 45 10
48 15 3 6 19 14 34 17 15 4 27 11 27 16 0 5 11 9 25 9 14 0 28 7 31 15 4 8 12
15 20 15 8 0 14 7 14 15 0 9 9 15 25 15 16 0 25 6 25 15 0 8 9 15 20 15 11 0
20 4 20 10 0 5 11 12 25 16 14 3 25 12 25 20 0 8 7 14 15 14 8 0 15 7 15 15 0
8 7 15 15 15 8 0 15 7 15 15 0 8 7 15 15 15 8 0 15 7 15 15 0 8 7 15 15 15 8
0 15 7 15 15 0 8 7 15 15 15 8 0 15 7 15 15 0 8 7 15 15 15 8 0 15 7 15 15 0
8 4 15 10 15 5 0 12 11 16 25 3 14 12 25 20 25 8 0 14 7 14 15 0 8 4 15 9 15
5 0 12 14 16 30 l7 30 539 0 c472 0 539 2 539 15 0 12 16 15 85 15 69 0 85 3
85 15 0 11 12 15 50 15 38 0 50 4 50 15 0 11 11 15 40 15 29 0 40 4 40 15 0
10 10 15 30 15 17 0 30 4 30 9 0 5 14 12 30 16 17 4 30 10 30 15 0 5 14 11 30
15 17 4 30 10 30 15 0 5 14 11 30 15 17 4 30 10 30 15 0 5 10 12 22 15 11 4
31 18 43 31 12 13 26 24 31 24 5 0 21 13 35 29 14 15 35 31 47 35 12 4 22 12
22 17 0 5 7 9 15 9 8 0 15 7 15 15 0 8 7 15 15 15 8 0 15 7 15 15 0 8 7 15 15
15 8 0 15 7 15 15 0 8 7 15 15 15 8 0 15 7 15 15 0 8 5 15 10 15 6 0 10 7 10
15 0 8 9 23 20 32 11 10 20 23 20 30 0 7 7 13 15 13 8 0 15 7 15 15 0 8 4 15
10 15 5 0 12 11 16 24 3 14 12 27 20 30 8 3 14 12 14 21 0 8 4 15 9 15 5 0 12
11 15 25 4 14 10 25 15 25 5 0 12 13 16 30 4 16 10 30 15 30 5 0 11 14 15 30
4 16 11 30 16 30 5 0 9 14 9 30 0 20 5 30 15 30 11 0 15 11 15 40 0 27 5 43
15 46 10 4 15 20 15 44 0 24 5 40 15 44 11 4 15 21 15 61 0 37 5 62 15 71 13
13 15 61 15 310 0 255 -2 294 -15 294 -12 0 -15 16 -15 85 0 69 -3 85 -15 85
-12 0 -15 13 -15 60 0 47 -3 60 -15 60 -11 0 -15 13 -15 54 0 39 -4 55 -15 60
-10 3 -15 19 -15 45 0 25 -5 41 -15 45 -10 3 -15 19 -15 45 0 22 -5 41 -11 43
-5 2 -13 22 -16 46 -3 23 -9 42 -14 42 -4 0 -10 14 -14 30 -4 17 -11 30 -16
30 -5 0 -12 18 -15 40 -4 22 -10 40 -14 40 -5 0 -11 14 -15 30 -4 17 -11 30
-16 30 -5 0 -9 9 -9 19 0 11 -6 26 -13 33 -8 7 -17 26 -21 41 -3 15 -11 27
-16 27 -6 0 -10 14 -10 30 0 20 -5 30 -15 30 -10 0 -15 10 -15 30 0 20 -5 30
-15 30 -9 0 -15 9 -15 25 0 14 -6 28 -14 31 -8 3 -17 16 -20 30 -4 13 -11 24
-16 24 -6 0 -10 9 -10 20 0 11 -7 20 -15 20 -9 0 -15 9 -15 24 0 13 -7 26 -15
30 -8 3 -15 12 -15 21 0 8 7 15 15 15 8 0 15 4 15 9 0 5 14 12 30 16 17 4 30
10 30 15 0 5 14 11 30 15 17 4 30 11 30 16 0 5 11 9 25 9 14 0 28 6 31 14 3 8
16 17 30 20 13 4 24 11 24 16 0 6 7 10 15 10 8 0 15 7 15 15 0 8 9 15 20 15
11 0 20 7 20 15 0 9 9 15 25 15 16 0 25 6 25 15 0 8 7 15 15 15 8 0 15 5 15
10 0 6 8 14 18 17 9 4 30 19 45 35 16 15 35 28 43 28 8 0 14 7 14 15 0 8 7 15
15 15 8 0 15 5 15 11 0 6 20 31 45 56 25 24 45 51 45 59 0 8 7 14 15 14 8 0
15 5 15 10 0 6 11 21 25 34 14 13 25 28 25 35 0 6 6 11 14 11 8 0 17 14 21 30
4 17 11 30 16 30 5 0 9 7 9 15 0 8 7 15 15 15 9 0 15 9 15 25 0 14 7 28 15 31
8 4 15 17 15 30 0 15 6 24 15 24 10 0 15 10 15 30 0 20 5 30 15 30 10 0 15 10
15 30 0 20 5 30 15 30 10 0 15 10 15 31 0 17 7 37 15 45 8 9 15 28 15 44 0 16
5 30 11 32 6 2 13 26 16 53 3 28 11 53 16 57 6 4 13 37 15 75 3 37 10 71 16
75 16 10 16 4856 0 4866 -6 4 -13 35 -16 70 -2 35 -9 67 -15 70 -6 4 -13 32
-15 62 -3 30 -11 56 -17 58 -6 2 -11 17 -11 33 0 19 -5 29 -15 29 -11 0 -15
11 -15 40 0 29 -4 40 -15 40 -10 0 -15 10 -15 30 0 20 -5 30 -15 30 -10 0 -15
10 -15 30 0 20 -5 30 -15 30 -8 0 -15 9 -15 20 0 11 -4 20 -10 20 -5 0 -12 11
-16 24 -3 14 -12 27 -20 30 -8 3 -14 17 -14 31 0 16 -6 25 -15 25 -8 0 -15 7
-15 15 0 8 -4 15 -10 15 -5 0 -10 7 -10 15 0 8 -7 15 -15 15 -8 0 -15 7 -15
15 0 8 -9 23 -20 32 -11 10 -20 21 -20 26 0 12 -86 97 -99 97 -6 0 -11 7 -11
15 0 8 -7 15 -15 15 -8 0 -15 7 -15 15 0 8 -7 15 -15 15 -8 0 -15 7 -15 15 0
8 -7 15 -15 15 -8 0 -15 7 -15 15 0 8 -7 15 -15 15 -8 0 -15 7 -15 15 0 9 -9
15 -25 15 -16 0 -25 6 -25 15 0 8 -9 15 -20 15 -11 0 -20 7 -20 15 0 8 -7 15
-15 15 -8 0 -15 4 -15 10 0 5 -11 12 -24 16 -14 3 -27 12 -30 20 -3 8 -17 14
-31 14 -16 0 -25 6 -25 15 0 8 -7 15 -16 15 -8 0 -22 7 -30 15 -9 8 -29 15
-45 15 -19 0 -29 5 -29 15 0 10 -10 15 -30 15 -16 0 -30 4 -30 9 0 5 -13 12
-30 16 -16 4 -30 10 -30 15 0 4 -20 11 -45 14 -25 4 -45 11 -45 17 0 5 -13 9
-29 9 -16 0 -36 6 -43 14 -8 7 -38 15 -67 18 -29 3 -56 10 -60 15 -3 6 -49 13
-101 15 -56 4 -96 10 -98 17 -3 8 -300 11 -1088 11 -957 0 -1084 2 -1084 15 0
8 -9 15 -19 15 -11 0 -26 7 -35 15 -8 8 -22 15 -30 15 -9 0 -16 7 -16 15 0 9
-9 15 -25 15 -14 0 -25 4 -25 9 0 5 -12 12 -26 15 -15 4 -33 14 -41 21 -8 8
-23 15 -34 15 -10 0 -19 4 -19 10 0 5 -12 13 -27 16 -15 4 -34 13 -41 21 -7 7
-26 13 -42 13 -16 0 -30 7 -34 15 -3 8 -17 15 -31 15 -14 0 -25 4 -25 9 0 5
-13 12 -30 16 -16 4 -30 10 -30 14 0 5 -19 11 -41 14 -23 3 -45 10 -48 15 -3
5 -23 12 -43 16 -21 4 -38 11 -38 15 0 5 -19 11 -42 14 -24 3 -44 11 -46 16
-2 6 -24 11 -48 11 -31 0 -44 4 -44 14 0 9 -18 15 -57 18 -31 3 -59 10 -61 16
-2 7 -27 12 -63 12 -46 0 -59 3 -59 15 0 12 -16 15 -85 15 -69 0 -85 3 -85 15
0 12 -20 15 -119 15 -87 0 -120 3 -123 13 -4 9 -69 12 -274 14 -148 0 -277 -1
-286 -4z m620 -420 c2 -9 30 -13 92 -13 65 0 92 -4 104 -15 10 -11 36 -15 85
-15 56 0 71 -3 71 -15 0 -9 9 -15 21 -15 17 0 20 -4 15 -22 -3 -13 -6 -33 -6
-45 0 -14 -6 -23 -15 -23 -10 0 -15 -10 -15 -30 0 -16 -4 -30 -10 -30 -5 0
-13 -18 -16 -40 -4 -22 -10 -40 -15 -40 -5 0 -9 -7 -9 -15 0 -9 -7 -18 -15
-21 -8 -4 -15 -17 -15 -30 0 -14 -6 -24 -14 -24 -8 0 -17 -13 -21 -30 -4 -16
-11 -30 -16 -30 -5 0 -9 -6 -9 -14 0 -8 -13 -28 -30 -44 -16 -17 -30 -34 -30
-39 0 -11 -37 -43 -50 -43 -6 0 -10 -9 -10 -20 0 -11 -7 -20 -15 -20 -8 0 -15
-4 -15 -10 0 -5 -7 -10 -15 -10 -8 0 -15 -6 -15 -14 0 -8 -11 -17 -25 -20 -14
-4 -25 -11 -25 -16 0 -6 -7 -10 -15 -10 -9 0 -18 -6 -21 -14 -3 -8 -16 -17
-30 -20 -13 -4 -24 -11 -24 -16 0 -6 -9 -10 -19 -10 -11 0 -26 -6 -33 -13 -7
-8 -26 -17 -41 -21 -15 -3 -27 -11 -27 -16 0 -6 -13 -10 -30 -10 -20 0 -30 -5
-30 -15 0 -10 -10 -15 -30 -15 -20 0 -30 -5 -30 -15 0 -12 -15 -15 -71 -15
-50 0 -75 -4 -86 -15 -13 -14 -55 -15 -306 -13 -221 2 -291 6 -295 16 -2 8
-30 12 -93 12 -72 0 -89 3 -89 15 0 12 -19 15 -115 15 -96 0 -115 3 -115 15 0
13 -33 15 -235 15 -202 0 -235 -2 -235 -15 0 -12 -16 -15 -85 -15 -67 0 -87
-3 -91 -15 -4 -10 -20 -15 -46 -15 -22 0 -46 -7 -54 -15 -9 -9 -34 -15 -60
-15 -32 0 -44 -4 -44 -15 0 -11 -12 -15 -45 -15 -33 0 -45 -4 -45 -15 0 -8 -7
-15 -15 -15 -8 0 -15 -4 -15 -9 0 -5 -13 -12 -30 -16 -16 -4 -30 -10 -30 -15
0 -5 -13 -11 -30 -15 -16 -4 -30 -10 -30 -15 0 -4 -11 -11 -25 -14 -14 -4 -25
-11 -25 -16 0 -6 -6 -10 -13 -10 -7 0 -20 -9 -30 -20 -9 -11 -24 -20 -32 -20
-8 0 -15 -4 -15 -10 0 -5 -7 -10 -15 -10 -8 0 -15 5 -15 10 0 6 7 10 15 10 8
0 15 9 15 20 0 11 7 20 15 20 8 0 15 5 15 11 0 6 14 24 30 41 17 16 30 35 30
43 0 7 11 16 25 19 15 4 27 16 31 31 3 14 12 25 20 25 8 0 14 7 14 15 0 8 7
15 15 15 8 0 15 7 15 15 0 8 7 15 15 15 8 0 15 7 15 15 0 8 5 15 11 15 6 0 24
14 41 30 16 17 36 30 44 30 8 0 14 7 14 15 0 8 7 15 15 15 8 0 15 7 15 15 0 8
7 15 15 15 8 0 15 5 15 10 0 6 7 10 15 10 8 0 15 7 15 15 0 8 6 15 14 15 8 0
27 13 43 28 15 16 36 31 46 35 9 3 17 11 17 17 0 5 7 10 15 10 8 0 15 7 15 15
0 9 9 15 25 15 16 0 25 6 25 15 0 8 7 15 15 15 8 0 15 7 15 15 0 10 10 15 30
15 20 0 30 5 30 15 0 8 7 15 15 15 8 0 15 7 15 15 0 10 10 15 30 15 20 0 30 5
30 15 0 9 9 15 24 15 13 0 26 7 30 15 3 8 16 15 30 15 13 0 26 7 30 15 3 8 16
15 30 15 13 0 26 7 30 15 3 8 17 15 31 15 14 0 25 4 25 9 0 5 14 12 30 16 17
4 30 10 30 15 0 5 14 11 30 15 17 4 30 11 30 16 0 5 14 9 30 9 20 0 30 5 30
15 0 10 10 15 29 15 16 0 36 7 45 15 8 8 28 15 45 15 16 0 36 7 45 15 8 8 28
15 45 15 21 0 31 5 31 15 0 12 13 15 55 15 42 0 55 3 55 15 0 12 13 15 60 15
47 0 60 3 60 15 0 12 15 15 71 15 49 0 75 4 85 15 11 11 37 15 90 15 41 0 74
4 74 9 0 17 47 19 389 17 258 -1 335 -4 339 -13z m-2748 -521 c0 -10 -38 -42
-50 -42 -6 0 -10 -7 -10 -15 0 -8 -7 -15 -15 -15 -8 0 -15 -6 -15 -14 0 -8
-13 -17 -30 -21 -23 -5 -30 -12 -30 -31 0 -15 -6 -24 -15 -24 -8 0 -15 -7 -15
-15 0 -8 -7 -15 -15 -15 -8 0 -15 -7 -15 -15 0 -8 -7 -15 -15 -15 -8 0 -15 -7
-15 -15 0 -8 -7 -15 -15 -15 -8 0 -15 -7 -15 -15 0 -8 -7 -15 -15 -15 -8 0
-15 -7 -15 -15 0 -8 -4 -15 -10 -15 -5 0 -10 -7 -10 -15 0 -8 -7 -15 -15 -15
-8 0 -15 -7 -15 -15 0 -8 -9 -23 -20 -32 -11 -10 -20 -22 -20 -27 0 -5 -11
-19 -24 -31 -13 -12 -27 -32 -31 -43 -3 -12 -11 -22 -16 -22 -5 0 -9 -7 -9
-15 0 -8 -7 -15 -15 -15 -8 0 -15 -9 -15 -20 0 -11 -7 -20 -15 -20 -9 0 -15
-9 -15 -25 0 -16 -6 -25 -15 -25 -8 0 -15 -7 -15 -15 0 -8 -7 -15 -15 -15 -10
0 -15 -10 -15 -30 0 -20 -5 -30 -15 -30 -8 0 -15 -9 -15 -20 0 -11 -4 -20 -9
-20 -5 0 -13 -10 -17 -22 -3 -12 -13 -28 -20 -36 -8 -7 -14 -20 -14 -28 0 -9
-7 -22 -15 -30 -8 -9 -15 -24 -15 -35 0 -10 -4 -19 -10 -19 -5 0 -12 -11 -16
-25 -3 -14 -10 -25 -14 -25 -5 0 -11 -13 -15 -30 -4 -16 -10 -30 -15 -30 -5 0
-11 -13 -15 -30 -4 -16 -10 -30 -15 -30 -5 0 -11 -13 -15 -30 -4 -16 -11 -30
-16 -30 -5 0 -9 -13 -9 -30 0 -19 -5 -30 -14 -30 -8 0 -16 -16 -19 -42 -3 -24
-11 -44 -16 -46 -6 -2 -11 -21 -11 -43 0 -28 -4 -39 -15 -39 -11 0 -15 -12
-15 -45 0 -33 -4 -45 -15 -45 -11 0 -15 -12 -15 -45 0 -33 -4 -45 -15 -45 -11
0 -15 -11 -15 -41 0 -23 -7 -47 -15 -55 -10 -10 -15 -35 -15 -75 0 -46 -3 -59
-15 -59 -12 0 -15 -13 -15 -59 0 -39 -4 -61 -12 -63 -9 -3 -14 -36 -17 -104
-2 -60 -8 -102 -15 -106 -16 -10 -16 -686 1 -696 7 -4 12 -48 15 -115 2 -65 7
-111 14 -115 6 -4 13 -38 16 -76 2 -42 9 -71 16 -74 7 -2 12 -23 12 -48 0 -32
4 -44 15 -44 12 0 15 -13 15 -55 0 -40 4 -57 15 -61 10 -4 15 -20 15 -50 0
-32 4 -44 15 -44 11 0 15 -11 15 -40 0 -29 4 -40 15 -40 11 0 15 -12 15 -45 0
-33 4 -45 15 -45 10 0 15 -10 15 -30 0 -20 5 -30 15 -30 10 0 15 -10 15 -30 0
-16 4 -30 10 -30 5 0 13 -18 16 -40 4 -22 10 -40 14 -40 5 0 11 -13 15 -30 4
-16 11 -30 16 -30 5 0 9 -7 9 -15 0 -9 7 -18 15 -21 8 -4 15 -17 15 -30 0 -15
6 -24 15 -24 10 0 15 -10 15 -30 0 -20 5 -30 15 -30 10 0 15 -10 15 -30 0 -19
5 -30 14 -30 8 0 17 -11 20 -25 4 -14 11 -25 16 -25 6 0 10 -9 10 -20 0 -11 7
-20 15 -20 9 0 15 -9 15 -25 0 -16 6 -25 15 -25 8 0 15 -9 15 -20 0 -11 7 -20
15 -20 9 0 15 -9 15 -25 0 -16 6 -25 15 -25 8 0 15 -9 15 -20 0 -11 7 -20 15
-20 9 0 15 -9 15 -25 0 -16 6 -25 15 -25 8 0 15 -7 15 -15 0 -8 7 -15 15 -15
8 0 15 -7 15 -15 0 -8 5 -15 10 -15 6 0 10 -7 10 -15 0 -8 6 -15 14 -15 8 0
17 -13 21 -30 4 -16 13 -30 21 -30 8 0 14 -5 14 -11 0 -7 11 -22 25 -35 14
-13 25 -28 25 -34 0 -5 7 -10 15 -10 8 0 15 -7 15 -15 0 -8 6 -15 14 -15 8 0
17 -11 20 -25 4 -14 11 -25 16 -25 6 0 10 -7 10 -15 0 -8 7 -15 15 -15 8 0 15
-7 15 -15 0 -8 7 -15 15 -15 8 0 15 -7 15 -15 0 -8 7 -15 15 -15 8 0 15 -7 15
-15 0 -8 7 -15 15 -15 8 0 15 -7 15 -15 0 -9 9 -15 25 -15 16 0 25 -6 25 -15
0 -8 7 -15 15 -15 8 0 15 -7 15 -15 0 -8 7 -15 15 -15 8 0 15 -7 15 -15 0 -8
6 -15 14 -15 8 0 16 -7 20 -15 3 -8 12 -15 21 -15 34 0 12 -45 -28 -55 -15 -4
-27 -11 -27 -16 0 -5 -11 -9 -25 -9 -15 0 -25 -6 -25 -14 0 -8 -13 -17 -30
-21 -16 -4 -30 -11 -30 -16 0 -5 -7 -9 -15 -9 -8 0 -15 -7 -15 -15 0 -10 -10
-15 -30 -15 -20 0 -30 -5 -30 -15 0 -9 -9 -15 -25 -15 -14 0 -28 -7 -31 -15
-4 -8 -12 -15 -20 -15 -8 0 -14 -7 -14 -15 0 -9 -9 -15 -25 -15 -14 0 -28 -7
-31 -15 -4 -8 -12 -15 -20 -15 -8 0 -14 -4 -14 -10 0 -5 -11 -12 -24 -16 -14
-3 -27 -12 -30 -20 -3 -8 -17 -14 -31 -14 -16 0 -25 -6 -25 -15 0 -8 -5 -15
-10 -15 -6 0 -21 -11 -33 -24 -12 -13 -33 -27 -47 -31 -14 -4 -35 -18 -47 -31
-12 -13 -27 -24 -33 -24 -5 0 -10 -7 -10 -15 0 -9 -9 -15 -25 -15 -14 0 -28
-7 -31 -15 -4 -8 -12 -15 -20 -15 -8 0 -14 -7 -14 -15 0 -8 -7 -15 -15 -15 -8
0 -15 -7 -15 -15 0 -9 -9 -15 -25 -15 -16 0 -25 -6 -25 -15 0 -8 -7 -15 -15
-15 -8 0 -15 -7 -15 -15 0 -8 -9 -15 -20 -15 -11 0 -20 -7 -20 -15 0 -8 -7
-15 -15 -15 -8 0 -15 -4 -15 -10 0 -5 -11 -12 -25 -16 -14 -3 -25 -12 -25 -20
0 -8 -7 -14 -15 -14 -8 0 -15 -7 -15 -15 0 -8 -7 -15 -15 -15 -8 0 -15 -7 -15
-15 0 -8 -5 -15 -11 -15 -7 0 -22 -11 -35 -25 -13 -14 -28 -25 -34 -25 -5 0
-10 -7 -10 -15 0 -8 -6 -15 -14 -15 -8 0 -41 -27 -74 -60 -33 -33 -65 -60 -71
-60 -6 0 -11 -7 -11 -15 0 -8 -7 -15 -15 -15 -8 0 -15 -7 -15 -15 0 -8 -7 -15
-15 -15 -8 0 -15 -7 -15 -15 0 -8 -7 -15 -15 -15 -8 0 -15 -7 -15 -15 0 -8 -7
-15 -15 -15 -9 0 -15 -9 -15 -25 0 -16 -6 -25 -15 -25 -8 0 -15 -7 -15 -15 0
-8 -7 -15 -15 -15 -8 0 -15 -7 -15 -15 0 -8 -7 -15 -15 -15 -8 0 -15 -5 -15
-10 0 -6 -20 -30 -45 -53 -25 -24 -45 -49 -45 -55 0 -7 -4 -12 -10 -12 -5 0
-12 -11 -16 -25 -3 -14 -12 -25 -20 -25 -8 0 -14 -7 -14 -15 0 -8 -7 -15 -15
-15 -8 0 -15 -7 -15 -15 0 -8 -4 -15 -10 -15 -5 0 -10 -7 -10 -15 0 -8 -7 -15
-15 -15 -8 0 -15 -7 -15 -15 0 -8 -6 -15 -14 -15 -8 0 -17 -11 -20 -25 -4 -14
-11 -25 -16 -25 -6 0 -10 -9 -10 -20 0 -11 -7 -20 -15 -20 -8 0 -15 -7 -15
-15 0 -8 -7 -15 -15 -15 -8 0 -15 -7 -15 -15 0 -8 -4 -15 -10 -15 -5 0 -12
-11 -16 -25 -3 -14 -12 -25 -20 -25 -8 0 -14 -7 -14 -15 0 -10 -10 -15 -30
-15 -16 0 -30 4 -30 10 0 5 -12 13 -27 16 -15 4 -34 13 -41 21 -7 7 -22 13
-33 13 -10 0 -19 4 -19 10 0 5 -11 12 -25 16 -14 3 -25 10 -25 14 0 5 -13 11
-30 15 -16 4 -30 11 -30 16 0 5 -7 9 -15 9 -8 0 -15 6 -15 14 0 8 -11 17 -25
20 -14 4 -25 11 -25 16 0 6 -7 10 -15 10 -8 0 -15 7 -15 15 0 8 -9 15 -20 15
-11 0 -20 7 -20 15 0 8 -7 15 -15 15 -8 0 -15 7 -15 15 0 8 -7 15 -15 15 -8 0
-15 5 -15 11 0 7 -11 22 -25 35 -14 13 -25 28 -25 34 0 5 -7 10 -15 10 -8 0
-15 7 -15 15 0 8 -7 15 -15 15 -8 0 -15 7 -15 15 0 8 -7 15 -15 15 -9 0 -15 9
-15 25 0 16 -6 25 -15 25 -10 0 -15 10 -15 30 0 20 -5 30 -15 30 -8 0 -15 7
-15 15 0 8 -7 15 -15 15 -10 0 -15 10 -15 30 0 20 -5 30 -15 30 -10 0 -15 10
-15 29 0 16 -5 31 -11 33 -5 2 -13 22 -16 46 -3 26 -11 42 -19 42 -10 0 -14
13 -14 39 0 22 -5 41 -10 43 -6 2 -14 30 -17 63 -3 33 -11 63 -17 67 -16 10
-16 4726 0 4736 6 4 14 36 18 72 3 36 11 67 16 68 6 2 10 19 10 37 0 19 6 40
13 47 8 7 16 31 20 52 3 22 11 42 16 45 5 4 13 19 16 34 4 15 11 27 16 27 5 0
9 11 9 25 0 16 6 25 15 25 8 0 15 9 15 20 0 11 7 20 15 20 9 0 15 9 15 24 0
13 7 26 15 30 8 3 15 12 15 21 0 8 4 15 10 15 5 0 12 11 16 25 3 14 12 25 20
25 8 0 14 7 14 15 0 8 7 15 15 15 8 0 15 7 15 15 0 8 7 15 15 15 8 0 15 7 15
15 0 8 7 15 15 15 8 0 15 7 15 15 0 8 7 15 15 15 8 0 15 7 15 15 0 8 7 15 15
15 8 0 15 4 15 10 0 15 33 50 47 50 7 0 13 4 13 10 0 5 11 12 25 16 14 3 25
12 25 20 0 8 7 14 15 14 8 0 15 4 15 9 0 5 14 12 30 16 17 4 30 10 30 15 0 5
14 11 30 15 17 4 30 10 30 15 0 5 14 11 30 15 17 4 30 11 30 16 0 5 11 9 25 9
14 0 28 7 31 15 4 8 18 15 34 15 16 0 35 7 44 15 8 8 32 15 55 15 30 0 41 4
41 15 0 12 15 15 75 15 53 0 78 4 87 15 11 12 123 14 806 15 435 0 792 -3 792
-8z m6382 -4 c3 -9 34 -14 91 -16 66 -3 87 -7 87 -18 0 -10 13 -14 44 -14 24
0 46 -5 48 -10 2 -6 21 -13 43 -17 22 -3 46 -12 53 -20 7 -7 20 -13 28 -13 9
0 22 -7 30 -15 9 -8 24 -15 35 -15 10 0 19 -4 19 -9 0 -5 11 -12 25 -15 14 -4
25 -10 25 -15 0 -5 14 -12 30 -16 17 -4 30 -11 30 -16 0 -5 7 -9 15 -9 8 0 15
-7 15 -15 0 -9 9 -15 25 -15 14 0 28 -7 31 -15 4 -8 12 -15 20 -15 8 0 14 -7
14 -15 0 -8 7 -15 15 -15 8 0 15 -7 15 -15 0 -8 7 -15 15 -15 8 0 15 -7 15
-15 0 -9 9 -15 25 -15 16 0 25 -6 25 -15 0 -8 7 -15 15 -15 8 0 15 -6 15 -14
0 -8 13 -27 28 -43 16 -15 31 -36 35 -45 3 -10 11 -18 17 -18 5 0 10 -7 10
-15 0 -8 7 -15 15 -15 9 0 15 -9 15 -25 0 -16 6 -25 15 -25 8 0 15 -6 15 -14
0 -8 7 -16 15 -20 8 -3 15 -17 15 -31 0 -16 6 -25 15 -25 10 0 15 -10 15 -30
0 -20 5 -30 15 -30 10 0 15 -10 15 -29 0 -16 5 -31 11 -33 5 -2 13 -22 16 -46
3 -23 9 -42 14 -42 4 0 11 -26 15 -57 4 -32 12 -61 18 -65 16 -10 16 -4846 0
-4856 -6 -4 -14 -32 -17 -62 -4 -30 -11 -56 -17 -58 -5 -2 -10 -21 -10 -43 0
-28 -4 -39 -15 -39 -10 0 -15 -10 -15 -30 0 -18 -6 -33 -15 -36 -8 -4 -15 -17
-15 -30 0 -15 -6 -24 -15 -24 -10 0 -15 -10 -15 -30 0 -20 -5 -30 -15 -30 -9
0 -15 -9 -15 -24 0 -13 -7 -26 -15 -30 -8 -3 -15 -12 -15 -21 0 -8 -7 -15 -15
-15 -9 0 -15 -9 -15 -25 0 -16 -6 -25 -15 -25 -8 0 -15 -7 -15 -15 0 -8 -7
-15 -15 -15 -8 0 -15 -7 -15 -15 0 -8 -7 -15 -15 -15 -8 0 -15 -7 -15 -15 0
-8 -7 -15 -15 -15 -8 0 -15 -7 -15 -15 0 -8 -7 -15 -15 -15 -8 0 -15 -7 -15
-15 0 -9 -9 -15 -25 -15 -16 0 -25 -6 -25 -15 0 -8 -7 -15 -15 -15 -8 0 -15
-7 -15 -15 0 -8 -7 -15 -15 -15 -8 0 -15 -7 -15 -15 0 -8 -6 -15 -14 -15 -8 0
-16 -7 -20 -15 -3 -8 -17 -15 -31 -15 -16 0 -25 -6 -25 -15 0 -8 -7 -15 -15
-15 -8 0 -15 -4 -15 -9 0 -5 -13 -12 -30 -16 -16 -4 -30 -10 -30 -15 0 -4 -11
-11 -25 -14 -14 -4 -25 -10 -25 -15 0 -5 -13 -12 -30 -16 -16 -4 -30 -11 -30
-16 0 -5 -7 -9 -15 -9 -9 0 -18 -7 -21 -15 -4 -8 -17 -15 -30 -15 -15 0 -24 6
-24 15 0 8 -6 15 -14 15 -8 0 -17 11 -20 25 -4 14 -11 25 -16 25 -6 0 -10 7
-10 15 0 8 -7 15 -15 15 -8 0 -15 6 -15 14 0 8 -7 16 -15 20 -8 3 -15 17 -15
31 0 16 -6 25 -15 25 -8 0 -15 7 -15 15 0 8 -7 15 -15 15 -8 0 -15 7 -15 15 0
8 -4 15 -9 15 -5 0 -12 14 -16 30 -4 17 -13 30 -21 30 -8 0 -14 5 -14 11 0 7
-11 22 -25 35 -14 13 -25 28 -25 34 0 5 -7 10 -15 10 -8 0 -15 6 -15 14 0 8
-13 28 -30 44 -16 17 -30 35 -30 41 0 6 -7 11 -15 11 -8 0 -15 7 -15 15 0 8
-7 15 -15 15 -8 0 -15 7 -15 15 0 8 -7 15 -15 15 -8 0 -15 7 -15 15 0 8 -7 15
-15 15 -8 0 -15 7 -15 15 0 8 -7 15 -15 15 -8 0 -15 7 -15 15 0 8 -7 15 -15
15 -8 0 -15 7 -15 15 0 8 -7 15 -15 15 -8 0 -15 7 -15 15 0 8 -7 15 -15 15 -8
0 -15 7 -15 15 0 8 -7 15 -15 15 -8 0 -15 7 -15 15 0 8 -7 15 -15 15 -8 0 -15
7 -15 15 0 8 -7 15 -15 15 -8 0 -15 5 -15 11 0 12 -25 39 -36 39 -11 0 -74 68
-74 80 0 5 -6 10 -13 10 -7 0 -20 9 -30 20 -9 11 -24 20 -32 20 -8 0 -15 5
-15 10 0 6 -7 10 -15 10 -8 0 -15 7 -15 15 0 8 -7 15 -15 15 -8 0 -15 7 -15
15 0 8 -7 15 -15 15 -8 0 -15 7 -15 15 0 8 -7 15 -15 15 -8 0 -15 4 -15 10 0
5 -11 12 -25 16 -14 3 -25 12 -25 20 0 8 -6 14 -14 14 -8 0 -16 7 -20 15 -3 8
-12 15 -21 15 -8 0 -15 4 -15 10 0 5 -11 12 -25 16 -14 3 -25 12 -25 20 0 8
-5 14 -10 14 -6 0 -21 11 -33 24 -12 13 -33 27 -46 31 -13 4 -34 18 -46 31
-12 13 -27 24 -34 24 -6 0 -11 7 -11 15 0 9 -9 15 -25 15 -14 0 -28 7 -31 15
-4 8 -12 15 -20 15 -8 0 -14 7 -14 15 0 10 -10 15 -30 15 -20 0 -30 5 -30 15
0 9 -9 15 -25 15 -16 0 -25 6 -25 15 0 8 -9 15 -20 15 -11 0 -20 7 -20 15 0 9
-9 15 -25 15 -16 0 -25 6 -25 15 0 10 -10 15 -30 15 -20 0 -30 5 -30 15 0 8
-9 15 -20 15 -11 0 -20 4 -20 10 0 5 -11 12 -25 16 -14 3 -25 10 -25 14 0 5
-13 11 -30 15 -16 4 -30 11 -30 16 0 5 -11 11 -25 15 -14 3 -25 10 -25 14 0 4
-12 11 -27 15 -15 3 -31 12 -35 18 -12 20 -9 37 7 37 8 0 15 7 15 15 0 8 7 15
15 15 8 0 15 7 15 15 0 8 7 15 15 15 8 0 15 7 15 15 0 8 7 15 15 15 8 0 15 7
15 15 0 8 7 15 15 15 8 0 15 7 15 15 0 8 5 15 10 15 6 0 21 11 34 25 13 14 28
25 35 25 6 0 11 7 11 15 0 8 7 15 15 15 8 0 15 7 15 15 0 8 7 15 15 15 8 0 15
7 15 15 0 8 7 15 15 15 8 0 15 7 15 15 0 8 7 15 15 15 8 0 15 5 15 10 0 6 18
27 40 49 22 21 40 44 40 50 0 6 7 11 15 11 8 0 15 7 15 15 0 8 6 15 14 15 8 0
17 14 21 30 4 17 11 30 16 30 5 0 9 7 9 15 0 8 7 15 15 15 8 0 15 7 15 15 0 8
6 15 14 15 8 0 17 11 20 25 4 14 11 25 16 25 6 0 10 9 10 20 0 11 7 20 15 20
9 0 15 9 15 25 0 16 6 25 15 25 8 0 15 9 15 20 0 11 7 20 15 20 9 0 15 9 15
25 0 16 6 25 15 25 8 0 15 9 15 20 0 11 4 20 10 20 5 0 12 11 16 25 3 14 12
25 20 25 9 0 14 11 14 30 0 20 5 30 15 30 9 0 15 9 15 24 0 13 7 26 15 30 8 3
15 12 15 21 0 8 4 15 9 15 5 0 12 14 16 30 4 17 11 30 16 30 5 0 9 11 9 25 0
14 7 28 15 31 8 4 15 17 15 30 0 14 6 27 14 30 7 3 16 23 20 45 3 21 11 39 16
39 6 0 10 14 10 30 0 20 5 30 15 30 11 0 15 12 15 45 0 33 4 45 15 45 11 0 15
11 15 39 0 25 5 41 15 45 10 3 15 19 15 45 0 25 5 41 15 45 11 4 15 21 15 61
0 42 3 55 15 55 11 0 15 12 15 44 0 26 5 46 12 48 8 3 14 33 16 84 3 43 9 82
16 86 6 4 12 44 15 90 2 47 8 86 15 90 8 5 11 116 11 393 0 277 -3 388 -11
393 -7 4 -13 43 -16 91 -2 55 -8 86 -16 89 -8 2 -12 25 -12 62 0 39 -5 64 -15
74 -9 8 -15 33 -15 60 0 26 -6 51 -15 60 -8 8 -15 32 -15 55 0 22 -7 46 -15
55 -8 8 -15 28 -15 45 0 21 -5 31 -15 31 -11 0 -15 12 -15 45 0 33 -4 45 -15
45 -11 0 -15 11 -15 40 0 29 -4 40 -15 40 -10 0 -15 10 -15 30 0 17 -4 30 -9
30 -5 0 -12 14 -16 30 -4 17 -10 30 -15 30 -5 0 -11 14 -15 30 -4 17 -10 30
-15 30 -5 0 -11 14 -15 30 -4 17 -10 30 -15 30 -5 0 -11 14 -15 30 -4 17 -11
30 -16 30 -5 0 -9 11 -9 25 0 14 -7 28 -15 31 -8 4 -15 17 -15 30 0 14 -7 27
-15 30 -8 4 -15 17 -15 30 0 15 -6 24 -15 24 -8 0 -15 9 -15 19 0 11 -7 26
-15 35 -8 8 -15 19 -15 25 0 6 -7 11 -15 11 -10 0 -15 10 -15 30 0 20 -5 30
-15 30 -8 0 -15 7 -15 15 0 8 -7 15 -15 15 -9 0 -15 9 -15 25 0 16 -6 25 -15
25 -8 0 -15 9 -15 20 0 11 -7 20 -15 20 -9 0 -15 9 -15 25 0 16 -6 25 -15 25
-8 0 -15 5 -15 10 0 6 -11 21 -25 34 -14 13 -25 27 -25 32 0 5 -9 17 -20 27
-11 9 -20 24 -20 32 0 8 -7 15 -15 15 -8 0 -15 5 -15 11 0 7 -11 22 -25 35
-14 13 -25 28 -25 34 0 5 -7 10 -15 10 -8 0 -15 7 -15 15 0 8 -7 15 -15 15 -8
0 -15 7 -15 15 0 8 -7 15 -15 15 -8 0 -15 7 -15 15 0 8 -7 15 -15 15 -8 0 -15
7 -15 15 0 8 -7 15 -15 15 -8 0 -15 7 -15 15 0 8 -7 15 -15 15 -8 0 -15 4 -15
10 0 15 -33 50 -47 50 -7 0 -13 11 -13 25 l0 25 774 0 c610 0 775 -3 778 -12z
m-2112 -88 c0 -5 -4 -10 -10 -10 -5 0 -10 5 -10 10 0 6 5 10 10 10 6 0 10 -4
10 -10z m-910 -320 c0 -5 -4 -10 -10 -10 -5 0 -10 5 -10 10 0 6 5 10 10 10 6
0 10 -4 10 -10z m-3390 -240 c0 -5 -7 -10 -15 -10 -8 0 -15 5 -15 10 0 6 7 10
15 10 8 0 15 -4 15 -10z m-40 -60 c0 -5 -4 -10 -10 -10 -5 0 -10 5 -10 10 0 6
5 10 10 10 6 0 10 -4 10 -10z m-20 -30 c0 -5 -4 -10 -10 -10 -5 0 -10 5 -10
10 0 6 5 10 10 10 6 0 10 -4 10 -10z m-60 -80 c0 -5 -4 -10 -10 -10 -5 0 -10
5 -10 10 0 6 5 10 10 10 6 0 10 -4 10 -10z m2870 -30 c0 -5 -4 -10 -10 -10 -5
0 -10 5 -10 10 0 6 5 10 10 10 6 0 10 -4 10 -10z m910 -5 c0 -8 7 -15 15 -15
8 0 15 -4 15 -9 0 -5 14 -12 30 -16 17 -4 30 -13 30 -21 0 -8 7 -14 15 -14 8
0 15 -4 15 -10 0 -5 7 -10 15 -10 8 0 23 -9 32 -20 10 -11 22 -20 27 -20 5 0
19 -11 31 -24 12 -13 32 -27 43 -31 12 -3 22 -11 22 -16 0 -5 7 -9 15 -9 8 0
15 -7 15 -15 0 -8 7 -15 15 -15 8 0 15 -7 15 -15 0 -8 7 -15 15 -15 8 0 15 -7
15 -15 0 -8 7 -15 15 -15 8 0 15 -7 15 -15 0 -8 7 -15 15 -15 8 0 15 -7 15
-15 0 -8 7 -15 15 -15 8 0 15 -7 15 -15 0 -8 7 -15 15 -15 8 0 15 -7 15 -15 0
-8 7 -15 15 -15 8 0 15 -5 15 -11 0 -7 11 -22 24 -34 13 -12 27 -31 30 -43 4
-11 13 -23 21 -26 8 -3 15 -12 15 -21 0 -8 4 -15 9 -15 5 0 13 -10 16 -22 4
-11 18 -31 30 -43 13 -11 27 -33 30 -48 4 -15 11 -27 16 -27 5 0 9 -7 9 -15 0
-8 6 -15 14 -15 8 0 17 -13 21 -30 4 -16 10 -30 15 -30 4 0 11 -11 14 -25 4
-14 11 -25 16 -25 6 0 10 -9 10 -20 0 -11 7 -20 15 -20 10 0 15 -10 15 -30 0
-20 5 -30 15 -30 11 0 15 -11 15 -40 0 -29 4 -40 15 -40 10 0 15 -10 15 -29 0
-16 6 -31 15 -35 10 -3 15 -19 15 -46 0 -29 4 -40 15 -40 11 0 15 -12 15 -44
0 -24 5 -46 11 -48 6 -2 13 -26 16 -53 3 -28 10 -53 15 -56 5 -3 11 -30 15
-60 3 -30 10 -56 14 -59 5 -3 11 -56 15 -118 4 -62 11 -112 16 -112 4 0 8
-106 8 -235 0 -129 -4 -235 -9 -235 -4 0 -11 -46 -15 -102 -4 -57 -11 -105
-16 -108 -4 -3 -11 -31 -15 -62 -4 -32 -11 -58 -15 -58 -4 0 -10 -19 -13 -42
-3 -24 -11 -44 -16 -46 -6 -2 -11 -21 -11 -43 0 -26 -5 -42 -15 -45 -10 -4
-15 -20 -15 -45 0 -26 -4 -39 -14 -39 -8 0 -16 -16 -19 -42 -3 -24 -11 -44
-16 -46 -6 -2 -11 -17 -11 -33 0 -19 -5 -29 -15 -29 -10 0 -15 -10 -15 -30 0
-20 -5 -30 -15 -30 -9 0 -15 -9 -15 -25 0 -16 -6 -25 -15 -25 -10 0 -15 -10
-15 -30 0 -20 -5 -30 -15 -30 -8 0 -15 -7 -15 -15 0 -8 -4 -15 -9 -15 -5 0
-12 -13 -16 -30 -4 -16 -13 -30 -21 -30 -8 0 -14 -7 -14 -15 0 -8 -4 -15 -9
-15 -5 0 -12 -13 -16 -30 -4 -16 -13 -30 -21 -30 -8 0 -14 -7 -14 -15 0 -8 -4
-15 -10 -15 -5 0 -10 -7 -10 -15 0 -8 -6 -15 -14 -15 -8 0 -17 -11 -20 -25 -4
-14 -11 -25 -16 -25 -6 0 -10 -7 -10 -15 0 -8 -7 -15 -15 -15 -8 0 -15 -7 -15
-15 0 -8 -7 -15 -15 -15 -8 0 -15 -7 -15 -15 0 -8 -7 -15 -15 -15 -8 0 -15 -7
-15 -15 0 -8 -7 -15 -15 -15 -8 0 -15 -7 -15 -15 0 -8 -7 -15 -15 -15 -8 0
-15 -7 -15 -15 0 -8 -7 -15 -15 -15 -8 0 -15 -7 -15 -15 0 -8 -7 -15 -15 -15
-8 0 -15 -7 -15 -15 0 -8 -7 -15 -15 -15 -8 0 -15 -7 -15 -15 0 -8 -7 -15 -15
-15 -8 0 -15 -7 -15 -15 0 -9 -9 -15 -25 -15 -16 0 -25 -6 -25 -15 0 -8 -6
-15 -14 -15 -8 0 -16 -7 -20 -15 -3 -8 -12 -15 -21 -15 -8 0 -15 -4 -15 -9 0
-5 -10 -13 -22 -16 -11 -4 -31 -18 -43 -30 -11 -13 -33 -27 -48 -30 -15 -4
-27 -11 -27 -16 0 -5 -7 -9 -15 -9 -8 0 -15 -6 -15 -14 0 -8 -13 -17 -30 -21
-16 -4 -30 -10 -30 -15 0 -5 -13 -11 -30 -15 -16 -4 -30 -11 -30 -16 0 -5 -11
-9 -25 -9 -16 0 -25 -6 -25 -15 0 -10 -10 -15 -30 -15 -20 0 -30 -5 -30 -15 0
-10 -10 -15 -30 -15 -20 0 -30 -5 -30 -15 0 -11 -12 -15 -45 -15 -33 0 -45 -4
-45 -15 0 -11 -11 -15 -39 -15 -25 0 -41 -5 -45 -15 -3 -10 -19 -15 -45 -15
-25 0 -41 -5 -45 -15 -3 -10 -19 -15 -46 -15 -24 0 -48 -7 -56 -15 -10 -10
-35 -15 -74 -15 -38 0 -60 -4 -62 -12 -3 -9 -36 -14 -106 -16 -56 -2 -102 -8
-102 -13 0 -5 -89 -9 -205 -9 -113 0 -205 4 -205 9 0 5 -50 11 -112 13 -73 3
-113 9 -116 16 -2 7 -26 12 -62 12 -39 0 -64 5 -74 15 -8 8 -32 15 -56 15 -27
0 -43 5 -46 15 -4 10 -20 15 -45 15 -26 0 -42 5 -45 15 -4 10 -20 15 -45 15
-28 0 -39 4 -39 15 0 11 -11 15 -39 15 -25 0 -41 5 -45 15 -3 9 -18 15 -36 15
-20 0 -30 5 -30 15 0 10 -10 15 -30 15 -20 0 -30 5 -30 15 0 9 -9 15 -25 15
-14 0 -25 4 -25 9 0 5 -13 12 -30 16 -16 4 -30 10 -30 15 0 4 -12 11 -26 14
-14 4 -36 18 -48 31 -12 13 -34 27 -49 30 -15 4 -27 11 -27 15 0 4 -11 11 -25
14 -14 4 -25 11 -25 16 0 6 -7 10 -15 10 -9 0 -18 7 -21 15 -4 8 -12 15 -20
15 -8 0 -14 7 -14 15 0 9 -9 15 -25 15 -16 0 -25 6 -25 15 0 8 -7 15 -15 15
-8 0 -15 7 -15 15 0 8 -9 15 -20 15 -11 0 -20 7 -20 15 0 8 -7 15 -15 15 -8 0
-15 7 -15 15 0 9 -9 15 -25 15 -16 0 -25 6 -25 15 0 8 -7 15 -15 15 -8 0 -15
7 -15 15 0 8 -7 15 -15 15 -8 0 -15 7 -15 15 0 8 -7 15 -15 15 -8 0 -15 7 -15
15 0 8 -7 15 -15 15 -8 0 -15 5 -15 11 0 6 -13 24 -30 41 -16 16 -30 36 -30
44 0 8 -7 14 -15 14 -8 0 -15 5 -15 10 0 6 -11 21 -25 34 -14 13 -25 28 -25
35 0 6 -6 11 -14 11 -8 0 -17 14 -21 30 -4 17 -11 30 -16 30 -5 0 -9 7 -9 15
0 8 -6 15 -14 15 -8 0 -17 11 -20 25 -4 14 -11 25 -16 25 -6 0 -10 9 -10 20 0
11 -7 20 -15 20 -9 0 -15 9 -15 25 0 14 -7 28 -15 31 -8 4 -15 17 -15 30 0 15
-6 24 -15 24 -10 0 -15 10 -15 30 0 20 -5 30 -15 30 -10 0 -15 10 -15 29 0 16
-6 31 -15 35 -10 3 -15 19 -15 46 0 29 -4 40 -15 40 -11 0 -15 11 -15 39 0 25
-5 41 -15 45 -10 3 -15 19 -15 45 0 22 -5 41 -11 43 -6 2 -14 28 -17 58 -2 30
-8 57 -13 60 -4 3 -11 37 -15 75 -4 39 -12 73 -18 77 -15 10 -15 566 0 576 6
4 14 45 17 91 4 47 11 87 15 90 5 3 12 24 15 46 4 22 11 41 17 43 5 2 10 23
10 47 0 25 6 50 15 59 8 8 15 26 15 41 0 14 7 28 15 31 8 4 15 18 15 34 0 16
7 35 15 44 8 8 15 26 15 40 0 16 6 26 15 26 10 0 15 10 15 30 0 20 5 30 15 30
8 0 15 7 15 15 0 8 7 15 15 15 10 0 15 10 15 30 0 20 5 30 15 30 8 0 15 7 15
15 0 8 4 15 9 15 5 0 13 10 17 22 4 12 20 33 35 47 16 14 29 29 29 34 0 12 86
97 99 97 6 0 11 7 11 15 0 8 7 15 15 15 8 0 15 7 15 15 0 8 7 15 15 15 8 0 15
7 15 15 0 8 7 15 15 15 8 0 15 7 15 15 0 8 7 15 15 15 8 0 15 7 15 15 0 9 9
15 24 15 13 0 26 7 30 15 3 8 12 15 21 15 8 0 15 4 15 9 0 5 12 12 27 16 15 3
31 12 35 18 5 9 165 13 618 15 335 2 610 6 610 11 0 4 64 11 142 14 78 3 144
10 147 15 3 5 37 12 76 16 38 4 72 11 75 15 3 4 27 11 55 14 27 3 51 10 53 16
2 6 19 11 37 11 19 0 40 6 47 13 7 8 31 17 53 20 22 4 41 11 43 17 2 5 17 10
33 10 19 0 29 5 29 15 0 11 11 15 40 15 29 0 40 4 40 15 0 10 10 15 30 15 20
0 30 5 30 15 0 10 10 15 30 15 20 0 30 5 30 15 0 10 10 15 30 15 20 0 30 5 30
15 0 8 7 15 15 15 8 0 15 4 15 9 0 5 14 12 30 16 17 4 30 13 30 21 0 8 10 14
25 14 14 0 25 5 25 10 0 6 8 14 18 17 9 4 26 16 38 29 11 12 31 25 42 29 12 3
22 11 22 16 0 5 7 9 15 9 8 0 15 7 15 15 0 8 6 15 13 15 7 0 24 13 37 30 22
25 32 29 78 30 40 0 52 -4 52 -15z m1050 -435 c0 -5 -4 -10 -10 -10 -5 0 -10
5 -10 10 0 6 5 10 10 10 6 0 10 -4 10 -10z m30 -30 c0 -5 -4 -10 -10 -10 -5 0
-10 5 -10 10 0 6 5 10 10 10 6 0 10 -4 10 -10z m-5160 -30 c0 -5 -4 -10 -10
-10 -5 0 -10 5 -10 10 0 6 5 10 10 10 6 0 10 -4 10 -10z m5400 -415 c0 -11 12
-15 45 -15 25 0 45 -4 45 -9 0 -5 25 -12 55 -16 30 -3 55 -11 55 -16 0 -5 14
-9 30 -9 17 0 33 -6 36 -14 3 -8 16 -17 28 -20 20 -5 24 -14 28 -58 3 -29 11
-54 17 -56 18 -6 14 -140 -4 -158 -11 -11 -15 -37 -15 -90 0 -54 -4 -80 -15
-90 -9 -9 -15 -34 -15 -59 0 -24 -5 -45 -11 -47 -5 -2 -13 -22 -16 -46 -3 -26
-11 -42 -19 -42 -10 0 -14 -13 -14 -40 0 -22 -4 -40 -10 -40 -5 0 -12 -22 -16
-50 -4 -27 -10 -50 -15 -50 -5 0 -11 23 -15 50 -4 28 -10 50 -14 50 -4 0 -10
57 -12 127 -3 83 -9 128 -17 131 -6 2 -11 27 -11 62 0 36 -5 64 -14 72 -7 8
-15 38 -18 68 -3 30 -11 56 -17 58 -6 2 -11 24 -11 48 0 32 -4 44 -15 44 -11
0 -15 11 -15 40 0 27 -5 43 -15 46 -10 4 -15 20 -15 45 0 28 -4 39 -15 39 -10
0 -15 10 -15 30 0 20 5 30 15 30 8 0 15 -7 15 -15z m-5100 -285 c0 -5 -4 -10
-10 -10 -5 0 -10 5 -10 10 0 6 5 10 10 10 6 0 10 -4 10 -10z m5300 -725 c0
-14 -4 -25 -10 -25 -5 0 -10 11 -10 25 0 14 5 25 10 25 6 0 10 -11 10 -25z
m-260 -1445 c0 -5 -7 -10 -15 -10 -8 0 -15 5 -15 10 0 6 7 10 15 10 8 0 15 -4
15 -10z m-60 -60 c0 -5 -4 -10 -10 -10 -5 0 -10 5 -10 10 0 6 5 10 10 10 6 0
10 -4 10 -10z m-4280 -1085 c0 -8 9 -15 20 -15 11 0 20 -5 20 -11 0 -7 11 -22
25 -35 28 -26 32 -44 10 -44 -8 0 -15 -4 -15 -9 0 -5 -12 -12 -27 -16 -15 -3
-37 -17 -50 -31 -12 -13 -31 -24 -43 -24 -11 0 -20 -7 -20 -15 0 -8 -7 -15
-15 -15 -9 0 -18 -6 -21 -14 -3 -8 -16 -17 -30 -20 -13 -4 -24 -11 -24 -16 0
-6 -7 -10 -15 -10 -8 0 -15 -6 -15 -14 0 -8 -11 -17 -25 -20 -14 -4 -25 -11
-25 -16 0 -6 -9 -10 -20 -10 -11 0 -20 -7 -20 -15 0 -8 -7 -15 -15 -15 -8 0
-15 -7 -15 -15 0 -8 -7 -15 -15 -15 -8 0 -15 -7 -15 -15 0 -9 -9 -15 -25 -15
-16 0 -25 -6 -25 -15 0 -8 -9 -15 -20 -15 -11 0 -20 -7 -20 -15 0 -8 -5 -15
-11 -15 -6 0 -31 -20 -56 -45 -24 -25 -49 -45 -54 -45 -6 0 -20 -11 -33 -25
-13 -14 -28 -25 -35 -25 -6 0 -11 -7 -11 -15 0 -8 -7 -15 -15 -15 -8 0 -15 -7
-15 -15 0 -8 -7 -15 -15 -15 -8 0 -15 -7 -15 -15 0 -8 -7 -15 -15 -15 -8 0
-15 -7 -15 -15 0 -8 -7 -15 -15 -15 -8 0 -15 -7 -15 -15 0 -8 -7 -15 -15 -15
-8 0 -15 -7 -15 -15 0 -9 -9 -15 -25 -15 -15 0 -25 -6 -25 -14 0 -8 -14 -28
-31 -45 -17 -17 -37 -31 -45 -31 -8 0 -14 -7 -14 -15 0 -8 -7 -15 -15 -15 -8
0 -15 -7 -15 -15 0 -8 -7 -15 -15 -15 -8 0 -15 -6 -15 -14 0 -8 -13 -28 -30
-44 -16 -17 -30 -35 -30 -41 0 -6 -7 -11 -15 -11 -8 0 -15 -7 -15 -15 0 -8 -7
-15 -15 -15 -8 0 -15 -7 -15 -15 0 -8 -7 -15 -15 -15 -8 0 -15 -7 -15 -15 0
-8 -7 -15 -15 -15 -8 0 -15 -7 -15 -15 0 -8 -7 -15 -15 -15 -8 0 -15 -7 -15
-15 0 -8 -7 -15 -15 -15 -8 0 -15 -7 -15 -15 0 -8 -7 -15 -15 -15 -8 0 -15 -5
-15 -11 0 -7 -11 -22 -25 -35 -14 -13 -25 -28 -25 -34 0 -5 -7 -10 -15 -10 -8
0 -15 -7 -15 -15 0 -8 -6 -15 -14 -15 -8 0 -17 -11 -20 -25 -4 -14 -11 -25
-16 -25 -6 0 -10 -7 -10 -15 0 -8 -7 -15 -15 -15 -8 0 -15 -7 -15 -15 0 -8 -7
-15 -15 -15 -8 0 -15 -7 -15 -15 0 -9 -7 -18 -15 -21 -8 -4 -15 -12 -15 -20 0
-8 -7 -14 -15 -14 -9 0 -15 -9 -15 -25 0 -16 -6 -25 -15 -25 -8 0 -15 -7 -15
-15 0 -8 -7 -15 -15 -15 -10 0 -15 -10 -15 -30 0 -20 -5 -30 -15 -30 -8 0 -15
-7 -15 -15 0 -8 -7 -15 -15 -15 -8 0 -15 -7 -15 -15 0 -8 -4 -15 -10 -15 -5 0
-12 -11 -16 -24 -3 -14 -12 -27 -20 -30 -8 -3 -14 -11 -14 -17 0 -6 -11 -22
-25 -35 -14 -13 -25 -32 -25 -44 0 -11 -7 -20 -15 -20 -8 0 -15 -9 -15 -19 0
-11 -7 -26 -15 -35 -8 -8 -15 -19 -15 -25 0 -6 -7 -11 -15 -11 -8 0 -15 -9
-15 -19 0 -11 -7 -26 -15 -35 -8 -8 -15 -19 -15 -25 0 -6 -7 -11 -15 -11 -10
0 -15 -10 -15 -30 0 -20 -5 -30 -15 -30 -8 0 -15 -7 -15 -15 0 -8 -7 -15 -15
-15 -9 0 -15 -9 -15 -24 0 -13 -7 -26 -15 -30 -8 -3 -15 -12 -15 -21 0 -8 -7
-15 -15 -15 -9 0 -15 -9 -15 -24 0 -13 -7 -26 -15 -30 -8 -3 -15 -16 -15 -30
0 -13 -7 -26 -15 -30 -8 -3 -15 -17 -15 -31 0 -16 -6 -25 -15 -25 -8 0 -15 -7
-15 -15 0 -8 -4 -15 -9 -15 -5 0 -12 -13 -16 -30 -4 -16 -10 -30 -15 -30 -5 0
-11 -13 -15 -30 -4 -16 -11 -30 -16 -30 -5 0 -9 -11 -9 -25 0 -14 -7 -28 -15
-31 -8 -4 -15 -17 -15 -30 0 -14 -7 -27 -15 -30 -8 -4 -15 -18 -15 -34 0 -16
-7 -35 -15 -44 -8 -8 -15 -26 -15 -40 0 -16 -6 -26 -15 -26 -10 0 -15 -10 -15
-30 0 -20 -5 -30 -15 -30 -10 0 -15 -10 -15 -30 0 -20 -5 -30 -15 -30 -11 0
-15 -12 -15 -45 0 -34 -4 -45 -16 -45 -9 0 -14 -6 -12 -12 4 -10 85 -14 351
-16 l347 -2 0 -389 0 -389 -52 -7 c-29 -4 -56 -13 -60 -19 -10 -15 -396 -15
-406 0 -4 6 -25 14 -47 17 -22 4 -41 11 -43 17 -2 5 -21 10 -43 10 -26 0 -42
5 -45 15 -4 9 -19 15 -35 15 -19 0 -29 5 -29 15 0 10 -10 15 -30 15 -20 0 -30
5 -30 15 0 9 -9 15 -25 15 -16 0 -25 6 -25 15 0 8 -7 15 -15 15 -8 0 -15 7
-15 15 0 8 -9 15 -20 15 -11 0 -20 7 -20 15 0 9 -9 15 -25 15 -16 0 -25 6 -25
15 0 8 -7 15 -15 15 -8 0 -15 7 -15 15 0 8 -7 15 -15 15 -8 0 -15 7 -15 15 0
8 -7 15 -15 15 -13 0 -15 26 -15 175 0 149 2 175 15 175 12 0 15 15 15 75 0
60 3 75 15 75 12 0 15 13 15 55 0 42 3 55 15 55 11 0 15 12 15 45 0 33 4 45
15 45 11 0 15 12 15 45 0 33 4 45 15 45 11 0 15 11 15 39 0 25 5 41 15 45 8 3
15 17 15 31 0 15 7 33 15 41 8 9 15 28 15 44 0 16 7 30 15 34 8 3 15 17 15 31
0 14 4 25 10 25 5 0 13 18 16 40 4 22 10 40 14 40 5 0 11 14 15 30 4 17 11 30
15 30 5 0 12 16 16 35 3 19 10 35 15 35 5 0 9 6 9 14 0 8 6 21 13 28 8 7 17
26 21 41 3 15 11 27 16 27 6 0 10 14 10 30 0 20 5 30 15 30 10 0 15 10 15 30
0 20 5 30 15 30 8 0 15 7 15 15 0 8 7 15 15 15 10 0 15 10 15 30 0 20 5 30 15
30 8 0 15 5 15 11 0 6 7 17 15 25 8 9 15 24 15 35 0 10 7 19 15 19 9 0 15 9
15 25 0 16 6 25 15 25 8 0 15 7 15 15 0 8 4 15 9 15 5 0 12 14 16 30 4 17 13
30 21 30 8 0 14 7 14 15 0 8 5 15 10 15 6 0 10 7 10 15 0 8 6 15 14 15 8 0 17
14 21 30 4 17 11 30 16 30 5 0 9 7 9 15 0 8 6 15 14 15 8 0 17 11 20 25 4 14
11 25 16 25 6 0 10 7 10 15 0 9 7 18 15 21 8 4 15 12 15 20 0 8 7 14 15 14 9
0 15 9 15 25 0 16 6 25 15 25 8 0 15 7 15 15 0 8 7 15 15 15 8 0 15 7 15 15 0
8 7 15 15 15 8 0 15 6 15 14 0 8 7 16 15 20 8 3 15 17 15 31 0 16 6 25 15 25
8 0 15 7 15 15 0 8 7 15 15 15 8 0 15 7 15 15 0 8 7 15 15 15 8 0 15 7 15 15
0 8 7 15 15 15 8 0 15 5 15 11 0 14 115 129 129 129 6 0 11 7 11 15 0 8 7 15
15 15 8 0 15 7 15 15 0 8 7 15 15 15 8 0 15 7 15 15 0 8 7 15 15 15 8 0 15 7
15 15 0 8 7 15 15 15 8 0 15 7 15 15 0 8 7 15 15 15 8 0 15 7 15 15 0 8 7 15
15 15 8 0 15 7 15 15 0 8 7 15 15 15 8 0 15 7 15 15 0 8 7 15 15 15 8 0 15 7
15 15 0 9 9 15 25 15 16 0 25 6 25 15 0 8 7 15 15 15 8 0 15 7 15 15 0 8 7 15
16 15 18 0 44 23 44 39 0 6 6 11 13 11 7 0 20 9 30 20 9 11 24 20 32 20 8 0
15 5 15 10 0 6 7 10 15 10 8 0 15 6 15 14 0 8 11 17 25 20 14 4 25 11 25 16 0
6 7 10 15 10 9 0 18 7 21 15 4 8 12 15 20 15 8 0 14 7 14 15 0 9 9 15 25 15
16 0 25 6 25 15 0 8 9 15 20 15 11 0 20 7 20 15 0 9 9 15 25 15 16 0 25 6 25
15 0 8 7 15 15 15 8 0 15 7 15 15 0 10 10 15 30 15 20 0 30 5 30 15 0 8 5 15
11 15 6 0 17 7 25 15 9 8 24 15 35 15 10 0 19 7 19 15 0 9 9 15 24 15 13 0 26
7 30 15 3 8 12 15 21 15 8 0 15 4 15 9 0 5 11 12 25 15 14 4 25 11 25 16 0 6
9 10 19 10 11 0 26 6 33 13 7 7 21 16 31 20 9 3 17 11 17 17 0 5 11 10 25 10
16 0 25 6 25 15 0 10 10 15 30 15 20 0 30 5 30 15 0 10 10 15 29 15 16 0 36 7
45 15 8 8 22 15 30 15 9 0 16 7 16 15 0 10 10 15 30 15 20 0 30 5 30 15 0 9 9
15 25 15 16 0 25 -6 25 -15z m3730 0 c0 -10 10 -15 30 -15 20 0 30 -5 30 -15
0 -11 11 -15 40 -15 29 0 40 -4 40 -15 0 -10 10 -15 30 -15 20 0 30 -5 30 -15
0 -10 10 -15 30 -15 20 0 30 -5 30 -15 0 -9 9 -15 24 -15 13 0 26 -7 30 -15 3
-8 17 -15 31 -15 16 0 25 -6 25 -15 0 -8 9 -15 20 -15 11 0 20 -4 20 -10 0 -5
11 -12 25 -16 14 -3 25 -10 25 -14 0 -5 14 -11 30 -15 17 -4 30 -11 30 -16 0
-5 7 -9 15 -9 8 0 15 -7 15 -15 0 -10 10 -15 30 -15 20 0 30 -5 30 -15 0 -8 7
-15 15 -15 8 0 15 -7 15 -15 0 -10 10 -15 30 -15 20 0 30 -5 30 -15 0 -8 7
-15 15 -15 8 0 15 -7 15 -15 0 -9 9 -15 24 -15 13 0 26 -7 30 -15 3 -8 12 -15
21 -15 8 0 15 -4 15 -10 0 -5 11 -12 25 -16 14 -3 25 -12 25 -20 0 -8 7 -14
15 -14 8 0 15 -4 15 -9 0 -5 14 -12 30 -16 17 -4 30 -13 30 -21 0 -8 7 -14 15
-14 8 0 15 -7 15 -15 0 -8 7 -15 15 -15 8 0 15 -4 15 -10 0 -5 7 -10 15 -10 8
0 23 -9 32 -20 10 -11 23 -20 30 -20 7 0 13 -5 13 -11 0 -13 20 -33 43 -42 9
-3 17 -11 17 -17 0 -5 7 -10 15 -10 8 0 15 -6 15 -14 0 -8 11 -17 25 -20 14
-4 25 -11 25 -16 0 -6 7 -10 15 -10 8 0 15 -7 15 -15 0 -8 7 -15 15 -15 8 0
15 -7 15 -15 0 -8 7 -15 15 -15 8 0 15 -7 15 -15 0 -8 7 -15 15 -15 8 0 15 -7
15 -15 0 -8 7 -15 15 -15 8 0 15 -7 15 -15 0 -8 7 -15 15 -15 8 0 15 -7 15
-15 0 -8 5 -15 11 -15 14 0 159 -145 159 -159 0 -6 7 -11 15 -11 8 0 15 -7 15
-15 0 -8 7 -15 15 -15 8 0 15 -7 15 -15 0 -8 7 -15 15 -15 8 0 15 -7 15 -15 0
-8 7 -15 15 -15 8 0 15 -7 15 -15 0 -8 7 -15 15 -15 8 0 15 -7 15 -15 0 -8 7
-15 15 -15 8 0 15 -7 15 -15 0 -8 7 -15 15 -15 9 0 15 -9 15 -25 0 -16 6 -25
15 -25 8 0 15 -9 15 -20 0 -11 7 -20 15 -20 8 0 15 -7 15 -15 0 -8 7 -15 15
-15 8 0 15 -7 15 -15 0 -8 4 -15 10 -15 5 0 12 -11 16 -25 3 -14 12 -25 20
-25 8 0 14 -6 14 -14 0 -8 7 -16 15 -20 8 -3 15 -12 15 -21 0 -8 4 -15 9 -15
5 0 13 -10 17 -22 4 -13 17 -33 30 -45 13 -12 24 -27 24 -33 0 -5 6 -10 14
-10 8 0 17 -13 21 -30 4 -16 11 -30 16 -30 5 0 9 -7 9 -15 0 -8 7 -15 15 -15
9 0 15 -9 15 -25 0 -14 6 -28 14 -31 8 -3 17 -16 20 -30 4 -13 11 -24 16 -24
6 0 10 -7 10 -15 0 -9 7 -18 15 -21 8 -4 15 -17 15 -30 0 -15 6 -24 15 -24 10
0 15 -10 15 -30 0 -20 5 -30 15 -30 8 0 15 -7 15 -15 0 -8 4 -15 9 -15 5 0 12
-13 16 -30 4 -16 10 -30 15 -30 5 0 11 -13 15 -30 4 -16 10 -30 15 -30 4 0 11
-12 14 -26 4 -15 14 -33 21 -41 8 -8 15 -23 15 -34 0 -10 5 -19 10 -19 6 0 10
-6 10 -14 0 -8 6 -21 13 -28 8 -7 17 -26 21 -41 3 -15 11 -27 16 -27 6 0 10
-13 10 -30 0 -19 5 -30 14 -30 8 0 16 -16 19 -42 3 -24 11 -44 16 -46 6 -2 11
-17 11 -33 0 -19 5 -29 15 -29 11 0 15 -11 15 -40 0 -29 4 -40 15 -40 11 0 15
-12 15 -45 0 -31 5 -47 15 -51 10 -4 15 -20 15 -44 0 -21 7 -45 15 -54 9 -9
15 -33 15 -60 0 -34 4 -46 15 -46 12 0 15 -13 15 -56 0 -36 5 -61 15 -70 11
-11 15 -37 15 -89 0 -45 4 -75 11 -77 7 -2 13 -45 15 -112 4 -99 3 -111 -15
-128 -11 -10 -25 -18 -31 -18 -5 0 -10 -9 -10 -20 0 -11 -7 -20 -15 -20 -9 0
-15 -9 -15 -24 0 -17 -7 -26 -25 -30 -14 -4 -25 -11 -25 -16 0 -6 -9 -10 -20
-10 -11 0 -20 -7 -20 -15 0 -8 -7 -15 -15 -15 -8 0 -15 -7 -15 -15 0 -10 -10
-15 -30 -15 -20 0 -30 -5 -30 -15 0 -9 -9 -15 -24 -15 -13 0 -26 -7 -30 -15
-3 -8 -17 -15 -31 -15 -14 0 -25 -4 -25 -9 0 -5 -13 -12 -30 -16 -16 -4 -30
-10 -30 -15 0 -4 -26 -11 -57 -15 -32 -4 -61 -12 -65 -19 -10 -15 -336 -16
-346 0 -4 6 -32 14 -62 16 -30 3 -56 11 -58 17 -2 6 -21 11 -43 11 l-39 0 0
364 c0 200 -3 371 -6 380 -6 14 27 16 320 16 211 0 326 -4 326 -10 0 -5 14
-10 30 -10 25 0 30 4 30 25 0 14 -7 28 -15 31 -10 4 -15 20 -15 45 0 28 -4 39
-15 39 -10 0 -15 10 -15 30 0 20 -5 30 -15 30 -11 0 -15 12 -15 45 0 33 -4 45
-15 45 -10 0 -15 10 -15 30 0 20 -5 30 -15 30 -10 0 -15 10 -15 30 0 17 -4 30
-10 30 -5 0 -13 12 -16 27 -4 15 -13 34 -21 41 -7 7 -13 22 -13 33 0 10 -4 19
-9 19 -5 0 -12 11 -15 25 -4 14 -11 25 -16 25 -6 0 -10 14 -10 30 0 20 -5 30
-15 30 -10 0 -15 10 -15 30 0 20 -5 30 -15 30 -9 0 -15 9 -15 25 0 14 -7 28
-15 31 -8 4 -15 17 -15 30 0 14 -6 27 -14 30 -8 3 -17 16 -20 30 -4 13 -11 24
-16 24 -6 0 -10 7 -10 15 0 9 -7 18 -15 21 -8 4 -15 17 -15 30 0 15 -6 24 -15
24 -8 0 -15 7 -15 15 0 9 -7 18 -15 21 -8 4 -15 17 -15 30 0 15 -6 24 -15 24
-8 0 -15 5 -15 11 0 6 -7 17 -15 25 -8 9 -15 24 -15 35 0 10 -7 19 -15 19 -8
0 -15 7 -15 15 0 8 -4 15 -10 15 -5 0 -12 11 -16 24 -3 14 -12 27 -20 30 -8 3
-14 12 -14 21 0 8 -4 15 -10 15 -5 0 -12 11 -16 25 -3 14 -10 25 -15 25 -5 0
-9 7 -9 15 0 8 -7 15 -15 15 -8 0 -15 6 -15 13 0 7 -9 20 -20 30 -11 9 -20 24
-20 32 0 8 -4 15 -10 15 -5 0 -10 7 -10 15 0 8 -7 15 -15 15 -8 0 -15 7 -15
15 0 8 -7 15 -15 15 -9 0 -15 9 -15 25 0 14 -7 28 -15 31 -8 4 -15 12 -15 20
0 8 -7 14 -15 14 -8 0 -15 7 -15 15 0 8 -7 15 -15 15 -8 0 -15 7 -15 15 0 8
-7 15 -15 15 -8 0 -15 7 -15 15 0 8 -4 15 -10 15 -5 0 -12 11 -16 25 -3 14
-12 25 -20 25 -8 0 -14 5 -14 10 0 6 -11 21 -25 34 -14 13 -25 28 -25 35 0 6
-7 11 -15 11 -8 0 -15 7 -15 15 0 8 -7 15 -15 15 -8 0 -15 7 -15 15 0 8 -7 15
-15 15 -8 0 -15 7 -15 15 0 8 -6 15 -14 15 -8 0 -17 12 -20 26 -7 28 -87 114
-105 114 -6 0 -11 7 -11 15 0 8 -7 15 -15 15 -8 0 -15 9 -15 20 0 11 -5 20
-11 20 -6 0 -42 32 -80 70 -38 39 -74 70 -79 70 -6 0 -10 7 -10 15 0 8 -7 15
-15 15 -8 0 -15 7 -15 15 0 8 -7 15 -15 15 -8 0 -15 7 -15 15 0 9 -9 15 -25
15 -16 0 -25 6 -25 15 0 8 -7 15 -15 15 -8 0 -15 6 -15 14 0 8 -14 28 -31 45
-17 17 -37 31 -45 31 -8 0 -14 7 -14 15 0 8 -5 15 -11 15 -7 0 -22 11 -35 25
-13 14 -28 25 -34 25 -5 0 -10 6 -10 14 0 8 -11 17 -25 20 -15 4 -27 16 -31
31 -4 18 -13 25 -30 25 -15 0 -24 6 -24 15 0 8 -7 15 -15 15 -8 0 -15 7 -15
15 0 8 -9 15 -20 15 -11 0 -20 7 -20 15 0 9 -9 15 -25 15 -16 0 -25 6 -25 15
0 8 -7 15 -15 15 -8 0 -15 7 -15 15 0 8 -7 15 -15 15 -8 0 -15 7 -15 15 0 8
-5 15 -11 15 -6 0 -17 7 -25 15 -9 8 -24 15 -35 15 -10 0 -19 7 -19 15 0 8 -5
15 -11 15 -6 0 -28 18 -49 39 -21 21 -49 42 -62 46 -12 4 -32 18 -44 30 -11
13 -30 26 -41 29 -34 11 -40 86 -7 86 8 0 14 7 14 15 0 10 10 15 30 15 20 0
30 -5 30 -15z m350 -1465 c0 -5 10 -10 21 -10 13 0 43 -22 73 -52 l51 -52 4
-108 c2 -59 7 -108 12 -108 5 0 9 -9 9 -20 0 -11 -4 -20 -10 -20 -6 0 -10
-111 -10 -312 0 -172 -3 -323 -6 -335 -5 -19 -13 -23 -45 -23 -26 0 -42 5 -45
15 -4 8 -12 15 -20 15 -12 0 -14 60 -14 365 0 318 -2 365 -15 365 -8 0 -15 7
-15 15 0 8 -7 15 -15 15 -8 0 -15 7 -15 15 0 9 -9 15 -25 15 -16 0 -25 6 -25
15 0 13 -244 15 -2140 15 -1896 0 -2140 -2 -2140 -15 0 -9 -9 -15 -25 -15 -16
0 -25 -6 -25 -15 0 -8 -7 -15 -15 -15 -24 0 -26 -48 -23 -413 l3 -347 -32 0
c-17 0 -34 -6 -37 -12 -5 -10 -7 -10 -12 0 -7 14 -34 16 -34 2 0 -5 -7 -10
-15 -10 -8 0 -15 5 -15 10 0 6 -7 10 -15 10 -13 0 -15 55 -15 434 0 376 2 435
15 440 8 3 15 12 15 21 0 8 5 15 10 15 6 0 10 6 10 14 0 8 14 28 31 45 17 17
37 31 45 31 8 0 14 5 14 10 0 7 755 10 2245 10 1490 0 2245 -3 2245 -10z
m-4340 -320 c0 -5 -4 -10 -10 -10 -5 0 -10 5 -10 10 0 6 5 10 10 10 6 0 10 -4
10 -10z m90 -1085 c0 -10 10 -15 30 -15 20 0 30 -5 30 -15 0 -8 7 -15 15 -15
8 0 15 -7 15 -15 0 -8 7 -15 15 -15 8 0 15 -5 15 -11 0 -6 7 -17 15 -25 8 -9
15 -24 15 -35 0 -10 5 -19 10 -19 6 0 10 -13 10 -30 0 -16 -4 -30 -10 -30 -5
0 -10 -6 -10 -14 0 -18 -42 -62 -68 -71 -12 -3 -22 -11 -22 -16 0 -5 -108 -9
-265 -9 -229 0 -265 -2 -265 -15 0 -10 -10 -15 -30 -15 -21 0 -30 -5 -30 -16
0 -8 -7 -22 -15 -30 -10 -10 -15 -35 -15 -74 0 -39 5 -64 15 -74 8 -8 15 -18
15 -23 0 -5 10 -17 23 -28 21 -19 39 -20 314 -22 l292 -2 37 -37 c34 -34 37
-43 38 -96 1 -33 -4 -62 -10 -66 -6 -4 -14 -17 -18 -29 -4 -13 -18 -26 -32
-29 -13 -3 -24 -12 -24 -20 0 -12 -45 -14 -264 -14 -178 0 -265 -3 -268 -11
-2 -5 -22 -13 -46 -16 -26 -3 -42 -11 -42 -19 0 -8 -7 -14 -15 -14 -12 0 -15
-16 -15 -85 0 -69 3 -85 15 -85 8 0 15 -7 15 -15 0 -8 7 -15 15 -15 8 0 15 -7
15 -15 0 -10 10 -15 30 -15 20 0 30 -5 30 -15 0 -13 34 -15 244 -15 l244 0 6
-22 c3 -13 6 -47 6 -75 0 -41 -4 -53 -15 -53 -8 0 -15 -7 -15 -15 0 -8 -7 -15
-15 -15 -8 0 -15 -7 -15 -15 0 -8 -7 -15 -15 -15 -8 0 -15 -4 -15 -9 0 -5 -13
-12 -30 -16 -16 -4 -30 -11 -30 -16 0 -5 -161 -9 -395 -9 -257 0 -395 4 -395
10 0 6 -14 10 -30 10 -18 0 -37 8 -47 20 -10 11 -21 20 -26 20 -12 0 -77 66
-77 79 0 6 -4 11 -10 11 -5 0 -12 11 -16 25 -3 14 -10 25 -14 25 -5 0 -11 14
-15 30 -4 17 -11 30 -16 30 -5 0 -9 206 -9 510 0 304 4 510 9 510 5 0 12 14
16 30 4 17 11 30 16 30 5 0 9 6 9 13 0 14 35 47 50 47 6 0 10 7 10 15 0 8 7
15 15 15 8 0 15 7 15 15 0 10 10 15 30 15 20 0 30 5 30 15 0 11 11 15 41 15
23 0 47 7 55 15 13 13 75 15 430 15 361 0 414 -2 414 -15z m4896 0 c4 -10 20
-15 45 -15 28 0 39 -4 39 -15 0 -9 9 -15 24 -15 13 0 26 -7 30 -15 3 -8 12
-15 21 -15 8 0 15 -7 15 -15 0 -8 7 -15 15 -15 8 0 15 -5 15 -11 0 -7 12 -22
26 -35 14 -14 28 -40 31 -59 3 -19 10 -35 14 -35 5 0 9 -219 9 -490 0 -272 -4
-490 -9 -490 -5 0 -11 -18 -15 -40 -3 -22 -11 -40 -16 -40 -6 0 -10 -7 -10
-15 0 -8 -9 -23 -20 -32 -11 -10 -20 -21 -20 -25 0 -14 -34 -48 -47 -48 -7 0
-13 -4 -13 -9 0 -5 -10 -13 -22 -17 -13 -4 -26 -12 -30 -17 -4 -6 -39 -13 -77
-15 -39 -2 -71 -8 -71 -13 0 -5 -45 -9 -100 -9 -57 0 -100 4 -100 10 0 5 -110
10 -277 12 -210 2 -277 6 -281 16 -2 6 -10 12 -18 12 -8 0 -14 7 -14 15 0 8
-7 15 -15 15 -8 0 -15 7 -15 15 0 8 -7 15 -15 15 -8 0 -15 9 -15 20 0 11 -4
20 -10 20 -5 0 -10 18 -10 40 0 29 4 40 15 40 8 0 15 7 15 15 0 13 34 15 245
15 211 0 245 2 245 15 0 10 10 15 30 15 20 0 30 5 30 15 0 8 7 15 15 15 8 0
15 5 15 11 0 6 7 17 15 25 10 10 15 35 15 75 0 46 -3 59 -15 59 -10 0 -15 10
-15 29 0 25 -5 31 -30 36 -16 4 -30 11 -30 16 0 5 -110 9 -264 9 -222 0 -267
2 -280 15 -8 8 -22 15 -30 15 -9 0 -16 7 -16 15 0 8 -7 15 -15 15 -8 0 -15 7
-15 15 0 8 -4 15 -10 15 -5 0 -10 7 -10 15 0 8 -7 15 -15 15 -10 0 -15 10 -15
30 0 17 4 30 9 30 5 0 12 11 15 25 8 31 36 65 53 65 7 0 13 5 13 10 0 6 103
10 290 10 251 0 290 2 290 15 0 8 7 15 15 15 8 0 15 7 15 15 0 8 7 15 15 15 8
0 15 6 15 14 0 8 7 16 15 20 21 8 22 116 1 116 -8 0 -17 11 -20 25 -4 15 -16
27 -31 31 -14 3 -25 12 -25 20 0 10 -13 14 -44 14 -26 0 -47 5 -50 13 -5 10
-7 10 -12 0 -4 -10 -59 -13 -224 -13 -184 0 -219 2 -224 15 -3 8 -10 15 -16
15 -15 0 -50 33 -50 47 0 7 -4 13 -10 13 -6 0 -10 27 -10 60 0 33 4 60 9 60 5
0 13 9 16 21 8 24 40 59 55 59 6 0 10 7 10 15 0 9 9 15 24 15 13 0 26 7 30 15
5 13 63 15 441 15 378 0 436 -2 441 -15z m-2646 -465 c0 -5 -4 -10 -10 -10 -5
0 -10 5 -10 10 0 6 5 10 10 10 6 0 10 -4 10 -10z m-1670 -120 c0 -5 -4 -10
-10 -10 -5 0 -10 5 -10 10 0 6 5 10 10 10 6 0 10 -4 10 -10z m2110 -530 c0 -5
-4 -10 -10 -10 -5 0 -10 5 -10 10 0 6 5 10 10 10 6 0 10 -4 10 -10z m-30 -60
c0 -5 -4 -10 -10 -10 -5 0 -10 5 -10 10 0 6 5 10 10 10 6 0 10 -4 10 -10z
m-1550 -380 c0 -5 -4 -10 -10 -10 -5 0 -10 5 -10 10 0 6 5 10 10 10 6 0 10 -4
10 -10z m-30 -30 c0 -5 -4 -10 -10 -10 -5 0 -10 5 -10 10 0 6 5 10 10 10 6 0
10 -4 10 -10z m1900 0 c0 -5 -4 -10 -10 -10 -5 0 -10 5 -10 10 0 6 5 10 10 10
6 0 10 -4 10 -10z m-1930 -45 c0 -14 -4 -25 -10 -25 -5 0 -10 11 -10 25 0 14
5 25 10 25 6 0 10 -11 10 -25z m1990 -40 c0 -8 -4 -15 -10 -15 -5 0 -10 7 -10
15 0 8 5 15 10 15 6 0 10 -7 10 -15z m-2020 -5 c0 -5 -4 -10 -10 -10 -5 0 -10
5 -10 10 0 6 5 10 10 10 6 0 10 -4 10 -10z m2690 0 c0 -5 -4 -10 -10 -10 -5 0
-10 5 -10 10 0 6 5 10 10 10 6 0 10 -4 10 -10z m-2810 -140 c0 -5 -4 -10 -10
-10 -5 0 -10 5 -10 10 0 6 5 10 10 10 6 0 10 -4 10 -10z m2260 0 c0 -5 -4 -10
-10 -10 -5 0 -10 5 -10 10 0 6 5 10 10 10 6 0 10 -4 10 -10z m-3400 -29 c0 -5
8 -11 18 -13 16 -5 19 -17 20 -88 1 -46 5 -86 10 -89 5 -3 12 -25 16 -48 5
-35 3 -43 -9 -43 -8 0 -15 7 -15 15 0 8 -7 15 -15 15 -8 0 -15 7 -15 15 0 8
-9 23 -20 32 -11 10 -20 23 -20 30 0 7 -4 13 -9 13 -5 0 -12 11 -15 25 -4 14
-11 25 -16 25 -6 0 -10 9 -10 19 0 11 -7 26 -15 35 -29 29 -19 46 30 46 25 0
45 5 45 10 0 6 5 10 10 10 6 0 10 -4 10 -9z m4370 -31 c0 -5 -7 -10 -15 -10
-8 0 -15 5 -15 10 0 6 7 10 15 10 8 0 15 -4 15 -10z m230 0 c0 -5 -4 -10 -10
-10 -5 0 -10 5 -10 10 0 6 5 10 10 10 6 0 10 -4 10 -10z m-3550 -60 c0 -5 -4
-10 -10 -10 -5 0 -10 5 -10 10 0 6 5 10 10 10 6 0 10 -4 10 -10z m-310 -350
c0 -5 -13 -10 -30 -10 -16 0 -30 5 -30 10 0 6 14 10 30 10 17 0 30 -4 30 -10z"/>
<path d="M16026 19833 c-16 -2 -35 -11 -43 -19 -8 -8 -21 -14 -29 -14 -8 0
-14 -4 -14 -10 0 -5 -7 -10 -15 -10 -8 0 -15 -7 -15 -15 0 -9 -7 -18 -15 -21
-9 -4 -15 -19 -15 -35 0 -19 -5 -29 -15 -29 -11 0 -15 -11 -15 -41 0 -23 7
-47 15 -55 8 -9 15 -24 15 -35 0 -22 45 -69 65 -69 7 0 15 -7 19 -15 3 -9 18
-15 36 -15 16 0 30 -4 30 -10 0 -6 65 -10 175 -10 110 0 175 4 175 10 0 6 11
10 25 10 14 0 28 6 31 14 3 8 16 17 30 20 13 4 24 13 24 20 0 8 8 22 17 31 13
13 17 36 17 98 0 53 -4 82 -12 85 -7 2 -12 9 -12 17 0 7 -19 32 -42 56 l-43
44 -180 2 c-99 0 -193 -1 -209 -4z"/>
<path d="M13650 19821 c0 -5 -12 -12 -26 -15 -33 -9 -79 -53 -89 -86 -4 -14
-12 -28 -18 -31 -5 -4 -9 -37 -9 -73 0 -59 2 -69 26 -91 14 -13 26 -29 26 -35
0 -5 7 -10 15 -10 8 0 15 -7 15 -15 0 -10 10 -15 30 -15 17 0 30 -4 30 -10 0
-6 67 -10 180 -10 99 0 180 4 180 9 0 5 18 11 40 15 22 3 40 11 40 16 0 6 7
10 15 10 8 0 15 9 15 19 0 11 6 26 14 34 26 25 26 187 1 187 -9 0 -15 9 -15
25 0 16 -6 25 -15 25 -8 0 -23 9 -32 20 -10 11 -28 20 -40 20 -13 0 -23 5 -23
10 0 6 -67 10 -180 10 -99 0 -180 -4 -180 -9z"/>
<path d="M13160 17010 c0 -5 5 -10 10 -10 6 0 10 5 10 10 0 6 -4 10 -10 10 -5
0 -10 -4 -10 -10z"/>
<path d="M16850 17005 c0 -8 5 -15 10 -15 6 0 10 7 10 15 0 8 -4 15 -10 15 -5
0 -10 -7 -10 -15z"/>
<path d="M16970 16920 c0 -5 5 -10 10 -10 6 0 10 5 10 10 0 6 -4 10 -10 10 -5
0 -10 -4 -10 -10z"/>
<path d="M17138 10163 c-16 -2 -28 -8 -28 -13 0 -5 -13 -11 -30 -15 -16 -4
-30 -11 -30 -16 0 -5 -7 -9 -15 -9 -8 0 -15 -7 -15 -15 0 -8 -7 -15 -15 -15
-8 0 -15 -7 -15 -15 0 -8 -4 -15 -10 -15 -5 0 -12 -17 -16 -37 -4 -21 -12 -41
-18 -45 -16 -10 -15 -150 2 -155 6 -3 12 -16 12 -29 0 -15 6 -24 15 -24 8 0
15 -5 15 -11 0 -15 65 -79 80 -79 5 0 10 -7 10 -15 0 -11 12 -15 45 -15 33 0
45 -4 45 -15 0 -18 46 -21 52 -4 2 6 28 14 58 17 31 2 58 11 63 18 4 8 13 14
18 14 14 0 69 56 69 69 0 6 7 11 15 11 10 0 15 10 15 30 0 20 5 30 15 30 12 0
15 15 15 76 0 54 -4 80 -15 90 -8 9 -15 26 -15 39 0 12 -7 25 -15 29 -8 3 -15
12 -15 21 0 8 -7 15 -15 15 -8 0 -15 7 -15 15 0 8 -7 15 -15 15 -8 0 -15 4
-15 10 0 5 -12 13 -27 16 -16 4 -31 11 -34 16 -7 10 -131 19 -171 11z"/>
<path d="M7168 9963 c-17 -4 -18 -71 -18 -1234 l0 -1229 509 0 c443 0 510 2
515 15 4 11 22 15 76 15 56 0 70 3 70 15 0 11 11 15 41 15 23 0 47 7 55 15 9
8 28 15 44 15 16 0 30 7 34 15 3 9 18 15 36 15 16 0 30 4 30 10 0 5 11 12 25
16 14 3 25 10 25 14 0 4 12 11 26 14 14 4 36 18 48 31 12 13 34 27 49 30 15 4
27 13 27 21 0 8 7 14 15 14 8 0 15 5 15 10 0 6 7 10 15 10 8 0 15 7 15 15 0 8
7 15 15 15 8 0 15 7 15 15 0 8 7 15 15 15 8 0 15 7 15 15 0 8 7 15 15 15 8 0
15 7 15 15 0 8 7 15 15 15 8 0 15 7 15 15 0 8 7 15 15 15 8 0 15 7 15 15 0 8
5 15 10 15 6 0 10 7 10 15 0 8 6 15 14 15 8 0 17 14 21 30 4 17 10 30 15 30 4
0 11 11 14 25 4 14 11 25 16 25 6 0 10 7 10 15 0 9 7 18 15 21 8 4 15 17 15
30 0 14 7 27 15 30 10 4 15 20 15 45 0 28 4 39 15 39 11 0 15 12 15 45 0 33 4
45 15 45 11 0 15 13 15 54 0 39 4 55 15 60 13 5 15 42 15 251 0 209 -2 246
-15 251 -11 5 -15 21 -15 60 0 41 -4 54 -15 54 -11 0 -15 12 -15 45 0 33 -4
45 -15 45 -11 0 -15 11 -15 39 0 25 -5 41 -15 45 -8 3 -15 16 -15 30 0 13 -7
26 -15 30 -8 3 -15 17 -15 31 0 16 -6 25 -15 25 -8 0 -15 6 -15 14 0 8 -7 16
-15 20 -8 3 -15 12 -15 21 0 8 -4 15 -10 15 -5 0 -12 11 -16 25 -3 14 -12 25
-20 25 -8 0 -14 7 -14 15 0 8 -4 15 -10 15 -5 0 -10 7 -10 15 0 8 -7 15 -15
15 -8 0 -15 7 -15 15 0 8 -7 15 -15 15 -8 0 -15 7 -15 15 0 8 -7 15 -15 15 -8
0 -15 7 -15 15 0 8 -5 15 -10 15 -6 0 -21 11 -33 24 -13 14 -35 28 -50 31 -15
4 -27 13 -27 21 0 8 -7 14 -15 14 -8 0 -15 4 -15 9 0 5 -11 12 -25 15 -14 4
-25 10 -25 15 0 5 -13 12 -30 16 -16 4 -30 11 -30 16 0 5 -9 9 -19 9 -11 0
-26 6 -33 13 -7 8 -26 17 -41 21 -15 3 -27 11 -27 16 0 6 -15 10 -34 10 -19 0
-41 7 -50 15 -9 9 -33 15 -65 15 -31 0 -53 5 -58 14 -7 11 -108 14 -543 18
-294 3 -543 3 -552 1z m652 -451 c0 -5 84 -12 187 -15 120 -4 189 -10 193 -17
4 -7 26 -14 49 -17 22 -3 41 -9 41 -14 0 -4 14 -10 30 -14 17 -4 30 -10 30
-15 0 -5 14 -11 30 -15 17 -4 30 -11 30 -16 0 -5 7 -9 15 -9 8 0 15 -6 15 -14
0 -8 11 -17 25 -20 14 -4 25 -11 25 -16 0 -6 7 -10 15 -10 8 0 15 -7 15 -15 0
-8 7 -15 15 -15 8 0 15 -7 15 -15 0 -8 7 -15 15 -15 8 0 15 -7 15 -15 0 -8 6
-15 14 -15 8 0 17 -13 21 -30 4 -16 11 -30 16 -30 5 0 9 -7 9 -15 0 -8 7 -15
15 -15 10 0 15 -10 15 -30 0 -20 5 -30 15 -30 10 0 15 -10 15 -30 0 -20 5 -30
15 -30 11 0 15 -13 15 -54 0 -39 4 -55 15 -60 12 -4 15 -32 15 -161 0 -131 -2
-155 -15 -155 -11 0 -15 -12 -15 -46 0 -27 -6 -51 -15 -60 -8 -9 -15 -29 -15
-45 0 -19 -5 -29 -15 -29 -10 0 -15 -10 -15 -30 0 -20 -5 -30 -15 -30 -9 0
-15 -9 -15 -24 0 -13 -7 -26 -15 -30 -8 -3 -15 -12 -15 -21 0 -8 -7 -15 -15
-15 -8 0 -15 -7 -15 -15 0 -8 -7 -15 -15 -15 -8 0 -15 -7 -15 -15 0 -8 -7 -15
-15 -15 -8 0 -15 -7 -15 -15 0 -8 -7 -15 -15 -15 -8 0 -15 -4 -15 -10 0 -5
-11 -12 -25 -16 -14 -3 -25 -12 -25 -20 0 -8 -7 -14 -15 -14 -8 0 -15 -4 -15
-9 0 -5 -13 -12 -30 -16 -16 -4 -30 -10 -30 -15 0 -5 -13 -11 -30 -15 -16 -4
-30 -10 -30 -14 0 -5 -19 -11 -41 -14 -23 -3 -45 -10 -48 -15 -3 -5 -55 -12
-116 -16 -60 -4 -111 -11 -113 -16 -5 -13 -302 -13 -302 -1 0 5 -11 12 -25 15
l-25 6 0 750 c0 660 2 750 15 750 8 0 15 5 15 10 0 6 35 10 85 10 47 0 85 -4
85 -8z"/>
<path d="M14373 9403 c-40 -2 -73 -8 -73 -13 0 -5 -20 -12 -45 -16 -25 -3 -45
-10 -45 -14 0 -5 -13 -11 -30 -15 -16 -4 -30 -11 -30 -16 0 -5 -11 -9 -25 -9
-14 0 -28 -6 -31 -14 -3 -8 -19 -18 -35 -21 -16 -4 -29 -11 -29 -16 0 -5 -7
-9 -15 -9 -8 0 -15 -6 -15 -14 0 -8 -11 -17 -25 -20 -14 -4 -25 -11 -25 -16 0
-6 -7 -10 -15 -10 -8 0 -15 -7 -15 -15 0 -8 -7 -15 -15 -15 -8 0 -15 -7 -15
-15 0 -8 -6 -15 -14 -15 -8 0 -17 -11 -20 -25 -4 -14 -11 -25 -16 -25 -6 0
-10 -9 -10 -20 0 -11 -6 -20 -14 -20 -8 0 -17 -11 -20 -25 -4 -14 -11 -25 -16
-25 -6 0 -10 -9 -10 -20 0 -11 -7 -20 -15 -20 -11 0 -15 -11 -15 -40 0 -29 -4
-40 -15 -40 -11 0 -15 -12 -15 -44 0 -30 -5 -46 -15 -50 -13 -5 -15 -82 -15
-616 0 -400 -3 -610 -10 -610 -5 0 -10 -7 -10 -15 0 -8 5 -15 10 -15 6 0 10
-7 10 -15 0 -13 31 -15 220 -15 l220 0 0 544 c0 471 2 547 15 560 10 9 15 34
15 70 0 43 3 56 15 56 8 0 15 7 15 15 0 8 4 15 9 15 5 0 12 14 16 30 4 17 13
30 21 30 8 0 14 7 14 15 0 8 7 15 15 15 8 0 15 7 15 15 0 8 7 15 15 15 8 0 15
4 15 10 0 5 17 12 38 16 20 4 40 12 44 18 11 16 230 15 235 -1 3 -7 17 -13 33
-13 16 0 35 -7 44 -15 8 -8 18 -15 22 -15 11 0 74 -68 74 -80 0 -5 6 -10 14
-10 8 0 17 -12 21 -27 3 -15 12 -31 18 -35 9 -5 13 -165 15 -618 l3 -610 244
0 245 0 2 612 c2 478 6 612 16 616 6 2 12 10 12 18 0 8 7 14 15 14 10 0 15 10
15 30 0 20 5 30 15 30 8 0 15 7 15 15 0 8 7 15 15 15 8 0 15 7 15 15 0 8 7 15
15 15 8 0 15 4 15 10 0 5 17 12 38 16 20 4 40 12 44 18 10 15 256 15 266 0 4
-6 18 -15 32 -19 14 -4 35 -18 47 -31 12 -13 27 -24 33 -24 5 0 10 -5 10 -10
0 -6 11 -21 24 -33 13 -12 27 -33 31 -47 4 -14 13 -28 18 -32 6 -4 13 -39 15
-77 2 -39 8 -71 13 -71 5 0 9 -20 9 -45 0 -25 -4 -45 -10 -45 -7 0 -10 -167
-10 -480 0 -313 3 -480 10 -480 6 0 10 -7 10 -15 0 -13 33 -15 235 -15 l235 0
0 604 c0 390 -4 606 -10 608 -5 2 -13 32 -17 68 -3 36 -12 71 -20 78 -7 7 -13
27 -13 43 0 16 -4 29 -9 29 -5 0 -12 14 -16 30 -4 17 -11 30 -16 30 -5 0 -9 7
-9 15 0 9 -6 18 -14 21 -8 3 -17 16 -20 30 -4 13 -11 24 -16 24 -6 0 -10 7
-10 15 0 8 -7 15 -15 15 -8 0 -15 7 -15 15 0 8 -7 15 -15 15 -8 0 -15 7 -15
15 0 8 -7 15 -15 15 -8 0 -15 7 -15 15 0 8 -7 15 -15 15 -8 0 -15 7 -15 15 0
8 -7 15 -15 15 -8 0 -15 7 -15 15 0 8 -5 15 -11 15 -6 0 -17 7 -25 15 -9 8
-24 15 -35 15 -10 0 -19 4 -19 10 0 5 -12 13 -27 16 -15 4 -34 13 -41 21 -7 7
-22 13 -33 13 -10 0 -19 4 -19 9 0 5 -24 12 -52 16 -29 4 -56 12 -59 17 -10
15 -379 15 -388 0 -3 -6 -30 -14 -59 -18 -28 -3 -52 -10 -52 -14 0 -5 -13 -11
-30 -15 -16 -4 -30 -11 -30 -16 0 -5 -13 -9 -30 -9 -20 0 -30 -5 -30 -15 0 -9
-9 -15 -25 -15 -14 0 -28 -6 -31 -14 -3 -8 -16 -17 -30 -20 -13 -4 -24 -11
-24 -16 0 -6 -7 -10 -15 -10 -8 0 -15 -7 -15 -15 0 -8 -7 -15 -15 -15 -8 0
-15 -7 -15 -15 0 -8 -7 -15 -15 -15 -8 0 -15 7 -15 15 0 8 -7 15 -15 15 -8 0
-15 7 -15 15 0 8 -7 15 -15 15 -8 0 -15 7 -15 15 0 9 -9 15 -24 15 -13 0 -26
7 -30 15 -3 8 -12 15 -21 15 -8 0 -15 4 -15 9 0 5 -13 12 -30 16 -16 4 -30 10
-30 15 0 5 -13 11 -30 15 -16 4 -30 10 -30 15 0 4 -24 11 -52 15 -29 4 -55 11
-58 15 -6 10 -237 19 -337 13z"/>
<path d="M20648 9403 c-27 -2 -48 -8 -48 -12 0 -5 -19 -11 -41 -14 -23 -3 -45
-10 -48 -15 -3 -6 -19 -14 -34 -17 -15 -4 -27 -11 -27 -16 0 -5 -13 -9 -30 -9
-19 0 -30 -5 -30 -14 0 -8 -13 -17 -30 -21 -16 -4 -30 -11 -30 -16 0 -5 -7 -9
-15 -9 -8 0 -15 -7 -15 -15 0 -8 -7 -15 -15 -15 -8 0 -15 -7 -15 -15 0 -9 -9
-15 -25 -15 -16 0 -25 -6 -25 -15 0 -8 -7 -15 -15 -15 -8 0 -15 -7 -15 -15 0
-8 -6 -15 -14 -15 -8 0 -17 -11 -20 -25 -4 -14 -11 -25 -16 -25 -6 0 -10 -7
-10 -15 0 -9 -6 -18 -14 -21 -8 -3 -17 -16 -20 -30 -4 -13 -11 -24 -16 -24 -6
0 -10 -9 -10 -19 0 -11 -7 -26 -15 -35 -8 -8 -15 -26 -15 -40 0 -16 -6 -26
-15 -26 -11 0 -15 -12 -15 -49 0 -31 -6 -55 -15 -65 -13 -13 -15 -97 -15 -640
l0 -626 235 0 235 0 0 584 c0 510 2 585 15 590 9 3 15 18 15 40 0 21 6 36 15
40 8 3 15 12 15 21 0 8 7 15 15 15 8 0 15 7 15 15 0 8 5 15 10 15 6 0 10 7 10
15 0 8 6 15 13 15 6 1 23 14 37 30 16 20 33 30 51 30 15 0 29 6 32 13 3 9 37
12 127 12 90 0 124 -3 128 -12 2 -7 15 -13 28 -13 14 0 27 -7 30 -15 4 -8 12
-15 20 -15 8 0 14 -6 14 -14 0 -8 11 -17 25 -20 15 -4 27 -16 31 -31 3 -14 10
-25 15 -25 5 0 9 -7 9 -15 0 -8 7 -15 15 -15 10 0 15 -10 15 -29 0 -16 7 -36
15 -45 13 -13 15 -93 15 -600 l0 -586 235 0 235 0 0 585 c0 513 2 585 15 585
11 0 15 11 15 39 0 25 5 41 15 45 8 3 15 12 15 21 0 8 7 15 15 15 8 0 15 9 15
20 0 22 45 70 65 70 7 0 15 7 19 15 3 8 16 15 30 15 13 0 26 6 29 13 3 9 38
12 132 12 94 0 129 -3 133 -12 2 -7 15 -13 28 -13 14 0 27 -7 30 -15 4 -8 12
-15 19 -15 18 0 75 -58 75 -76 0 -8 7 -14 15 -14 8 0 15 -7 15 -15 0 -8 4 -15
9 -15 5 0 12 -13 16 -30 4 -16 11 -30 16 -30 5 0 9 -241 9 -600 l0 -600 235 0
235 0 0 645 c0 567 -2 645 -15 645 -11 0 -15 11 -15 41 0 23 -7 47 -15 55 -8
9 -15 28 -15 44 0 16 -7 30 -15 34 -8 3 -15 12 -15 21 0 8 -4 15 -10 15 -5 0
-12 11 -16 25 -3 14 -10 25 -14 25 -5 0 -11 14 -15 30 -4 17 -13 30 -21 30 -8
0 -14 7 -14 15 0 8 -7 15 -15 15 -8 0 -15 4 -15 10 0 15 -33 50 -47 50 -7 0
-13 4 -13 10 0 5 -11 12 -25 16 -14 3 -25 12 -25 20 0 8 -7 14 -15 14 -8 0
-15 7 -15 15 0 10 -10 15 -30 15 -20 0 -30 5 -30 15 0 9 -9 15 -25 15 -14 0
-25 4 -25 10 0 5 -16 12 -35 16 -19 3 -35 10 -35 14 0 5 -24 11 -52 15 -29 4
-56 12 -60 18 -9 14 -367 14 -377 0 -3 -6 -27 -13 -53 -17 -27 -4 -48 -11 -48
-15 0 -5 -18 -11 -40 -15 -22 -3 -40 -10 -40 -15 0 -5 -11 -12 -25 -15 -14 -4
-25 -11 -25 -16 0 -6 -9 -10 -20 -10 -11 0 -20 -7 -20 -15 0 -9 -9 -15 -25
-15 -16 0 -25 -6 -25 -15 0 -8 -7 -15 -15 -15 -9 0 -18 -7 -21 -15 -4 -8 -12
-15 -20 -15 -8 0 -14 -7 -14 -15 0 -8 -4 -15 -10 -15 -5 0 -10 7 -10 15 0 8
-6 15 -12 15 -7 1 -24 14 -38 30 -14 17 -34 30 -47 30 -14 0 -23 6 -23 15 0 8
-7 15 -15 15 -8 0 -15 4 -15 9 0 5 -13 12 -30 16 -16 4 -30 11 -30 16 0 5 -18
12 -40 15 -22 4 -40 10 -40 15 0 4 -21 11 -47 15 -27 4 -51 11 -54 16 -6 9
-305 19 -381 11z"/>
<path d="M9376 9354 c-7 -19 3 -64 15 -64 5 0 9 -9 9 -19 0 -11 6 -26 13 -33
8 -7 16 -31 20 -52 3 -22 11 -42 16 -45 5 -4 13 -19 16 -34 4 -15 11 -27 16
-27 5 0 9 -11 9 -25 0 -14 7 -28 15 -31 8 -4 15 -17 15 -30 0 -14 7 -27 15
-30 9 -4 15 -19 15 -35 0 -19 5 -29 15 -29 10 0 15 -10 15 -30 0 -16 4 -30 10
-30 5 0 12 -11 16 -25 3 -14 10 -25 14 -25 5 0 11 -13 15 -30 4 -16 11 -30 16
-30 5 0 12 -18 15 -39 4 -22 13 -42 20 -45 8 -3 14 -16 14 -30 0 -13 7 -26 15
-30 8 -3 15 -17 15 -31 0 -14 4 -25 9 -25 5 0 12 -13 16 -30 4 -16 10 -30 15
-30 5 0 11 -13 15 -30 4 -16 11 -30 16 -30 5 0 9 -9 9 -19 0 -11 7 -26 15 -35
8 -8 15 -26 15 -40 0 -16 6 -26 15 -26 10 0 15 -10 15 -29 0 -16 6 -36 13 -43
8 -7 17 -26 21 -41 3 -15 11 -27 16 -27 6 0 10 -9 10 -19 0 -11 7 -26 15 -35
8 -8 15 -26 15 -40 0 -16 6 -26 15 -26 10 0 15 -10 15 -30 0 -20 5 -30 15 -30
10 0 15 -10 15 -30 0 -20 5 -30 15 -30 9 0 15 -10 15 -26 0 -14 7 -32 15 -40
8 -9 15 -28 15 -44 0 -16 7 -30 15 -34 9 -3 15 -18 15 -35 0 -16 6 -32 13 -35
10 -5 10 -7 0 -12 -7 -3 -13 -19 -13 -35 0 -16 -6 -32 -14 -35 -7 -3 -16 -23
-20 -45 -3 -21 -11 -39 -16 -39 -6 0 -10 -13 -10 -30 0 -20 -5 -30 -15 -30
-10 0 -15 -10 -15 -30 0 -20 -5 -30 -15 -30 -9 0 -15 -10 -15 -26 0 -14 -7
-32 -15 -40 -8 -9 -15 -29 -15 -45 0 -19 -5 -29 -15 -29 -10 0 -15 -10 -15
-29 0 -16 -6 -31 -15 -35 -8 -3 -15 -17 -15 -31 0 -14 -4 -25 -9 -25 -5 0 -12
-12 -16 -27 -3 -15 -11 -31 -17 -34 -5 -3 -12 -25 -15 -48 -3 -22 -9 -41 -14
-41 -4 0 -10 -13 -14 -30 -4 -16 -10 -30 -15 -30 -5 0 -11 -13 -15 -30 -4 -16
-10 -30 -15 -30 -4 0 -10 -18 -14 -40 -3 -22 -11 -40 -16 -40 -6 0 -10 -9 -10
-19 0 -11 -7 -26 -15 -35 -34 -34 -19 -36 235 -36 216 0 250 2 250 15 0 8 4
15 9 15 5 0 12 14 16 30 4 17 11 30 16 30 5 0 9 11 9 25 0 14 7 28 15 31 8 4
15 17 15 30 0 14 6 27 14 30 7 3 16 23 20 45 3 21 11 39 16 39 6 0 10 9 10 19
0 11 7 26 15 35 8 8 15 26 15 40 0 16 6 26 15 26 10 0 15 10 15 30 0 20 5 30
15 30 9 0 15 10 15 26 0 14 7 32 15 40 8 9 15 29 15 45 0 19 5 29 15 29 10 0
15 10 15 29 0 16 6 31 15 35 8 3 15 17 15 31 0 14 4 25 9 25 5 0 12 14 16 30
4 17 10 30 15 30 5 0 11 14 15 30 4 17 10 30 15 30 4 0 10 18 14 40 3 22 11
40 16 40 6 0 10 9 10 19 0 11 6 26 13 33 8 7 17 26 21 41 3 15 11 27 16 27 6
0 10 14 10 30 0 19 5 30 14 30 8 0 15 16 19 41 3 23 10 45 15 48 6 3 14 19 17
34 4 15 11 27 16 27 5 0 9 11 9 25 0 16 6 25 15 25 10 0 15 10 15 30 0 20 5
30 15 30 10 0 15 10 15 29 0 16 6 31 15 35 8 3 15 16 15 30 0 13 7 26 15 30 8
3 15 17 15 31 0 14 4 25 9 25 5 0 12 14 16 30 4 17 11 30 16 30 5 0 12 18 15
39 4 22 13 42 20 45 8 3 14 17 14 31 0 14 4 25 10 25 5 0 12 16 16 35 3 19 10
35 14 35 5 0 11 14 15 30 4 17 10 30 15 30 5 0 11 14 15 30 4 17 11 30 16 30
5 0 9 11 9 25 0 14 6 28 14 31 7 3 16 23 20 45 3 21 11 39 16 39 6 0 10 11 10
25 0 14 7 28 15 31 8 4 15 17 15 30 0 14 7 27 15 30 9 4 15 19 15 35 0 19 5
29 15 29 10 0 15 10 15 30 0 20 5 30 15 30 11 0 15 11 15 40 0 29 4 40 15 40
10 0 15 10 15 30 0 20 5 30 15 30 10 0 15 10 15 30 0 20 5 30 15 30 9 0 15 9
15 24 0 13 7 26 15 30 9 3 15 18 15 36 l0 30 -265 0 -265 0 0 -30 c0 -20 -5
-30 -15 -30 -10 0 -15 -10 -15 -29 0 -16 -6 -31 -15 -35 -9 -3 -15 -18 -15
-40 0 -21 -6 -36 -15 -40 -9 -3 -15 -18 -15 -36 0 -20 -5 -30 -15 -30 -10 0
-15 -10 -15 -30 0 -16 -4 -30 -10 -30 -5 0 -13 -12 -16 -27 -4 -15 -13 -34
-21 -41 -7 -7 -13 -27 -13 -43 0 -16 -4 -29 -9 -29 -5 0 -12 -13 -16 -30 -4
-16 -10 -30 -15 -30 -5 0 -11 -13 -15 -30 -4 -16 -10 -30 -15 -30 -5 0 -11
-13 -15 -30 -4 -16 -11 -30 -16 -30 -5 0 -9 -13 -9 -29 0 -16 -6 -36 -13 -43
-8 -7 -17 -26 -21 -41 -3 -15 -11 -27 -16 -27 -6 0 -10 -14 -10 -30 0 -18 -6
-33 -15 -36 -8 -4 -15 -18 -15 -34 0 -16 -7 -35 -15 -44 -8 -8 -15 -26 -15
-40 0 -16 -6 -26 -15 -26 -10 0 -15 -10 -15 -30 0 -20 -5 -30 -15 -30 -8 0
-15 -7 -15 -15 0 -8 -7 -15 -15 -15 -10 0 -15 10 -15 30 0 20 -5 30 -15 30
-10 0 -15 10 -15 30 0 20 -5 30 -15 30 -10 0 -15 10 -15 30 0 20 -5 30 -15 30
-9 0 -15 10 -15 26 0 14 -7 32 -15 40 -8 9 -15 24 -15 35 0 10 -4 19 -9 19 -5
0 -12 14 -16 30 -4 17 -11 30 -16 30 -5 0 -12 18 -15 40 -4 22 -10 40 -14 40
-5 0 -11 14 -15 30 -4 17 -10 30 -15 30 -5 0 -11 14 -15 30 -4 17 -10 30 -15
30 -5 0 -11 14 -15 30 -4 17 -11 30 -16 30 -5 0 -9 11 -9 25 0 14 -7 28 -15
31 -8 4 -15 17 -15 30 0 14 -7 27 -15 30 -9 4 -15 19 -15 35 0 19 -5 29 -15
29 -11 0 -15 11 -15 40 0 29 -4 40 -15 40 -10 0 -15 10 -15 30 0 20 -5 30 -15
30 -10 0 -15 10 -15 30 0 20 -5 30 -15 30 -11 0 -15 11 -15 40 0 29 -4 40 -15
40 -8 0 -15 7 -15 15 0 13 -24 15 -160 15 -100 0 -160 -4 -160 -10 0 -5 -7
-10 -15 -10 -8 0 -15 5 -15 10 0 15 -57 12 -64 -2 -5 -10 -7 -10 -12 0 -8 18
-61 15 -68 -4z"/>
<path d="M11546 9326 c-11 -46 -2 -1146 10 -1154 6 -4 13 -36 16 -71 3 -37 10
-67 16 -69 7 -2 12 -17 12 -33 0 -17 6 -32 15 -35 9 -4 15 -19 15 -40 0 -22 6
-37 15 -40 8 -4 15 -17 15 -30 0 -15 6 -24 15 -24 8 0 15 -9 15 -20 0 -11 7
-20 15 -20 8 0 15 -7 15 -15 0 -8 7 -15 15 -15 8 0 15 -5 15 -11 0 -14 85 -99
100 -99 6 0 13 -6 16 -14 3 -8 16 -17 30 -20 13 -4 24 -11 24 -16 0 -6 7 -10
15 -10 8 0 15 -7 15 -15 0 -10 10 -15 30 -15 20 0 30 -5 30 -15 0 -10 10 -15
30 -15 20 0 30 -5 30 -15 0 -11 13 -15 54 -15 39 0 55 -4 60 -15 4 -13 39 -15
221 -15 182 0 217 2 221 15 4 10 20 15 46 15 22 0 46 7 54 15 9 8 29 15 45 15
19 0 29 5 29 15 0 10 10 15 30 15 20 0 30 5 30 15 0 9 9 15 24 15 13 0 26 7
30 15 3 8 12 15 21 15 8 0 15 7 15 15 0 8 5 15 11 15 13 0 129 114 129 127 0
5 9 16 20 26 11 9 20 24 20 32 0 8 4 15 9 15 5 0 12 14 16 30 4 17 10 30 15
30 5 0 11 14 15 30 4 17 10 30 14 30 5 0 11 19 14 41 3 23 10 45 15 48 5 3 13
63 17 134 4 70 11 127 16 127 5 0 9 214 9 509 l0 509 -22 6 c-33 9 -441 7
-455 -2 -9 -6 -13 -151 -15 -595 -2 -435 -6 -590 -15 -595 -6 -4 -14 -19 -18
-34 -4 -15 -13 -29 -21 -32 -8 -3 -14 -10 -14 -16 0 -15 -25 -40 -39 -40 -6 0
-11 -7 -11 -15 0 -8 -7 -15 -15 -15 -8 0 -15 -7 -15 -15 0 -8 -9 -15 -19 -15
-11 0 -26 -7 -35 -15 -8 -8 -25 -15 -38 -15 -13 0 -33 -7 -44 -15 -28 -21
-184 -21 -184 0 0 11 -12 15 -45 15 -33 0 -45 4 -45 15 0 8 -6 15 -14 15 -8 0
-16 7 -20 15 -3 8 -12 15 -21 15 -8 0 -15 4 -15 10 0 5 -11 12 -25 16 -18 4
-25 13 -25 30 0 15 -6 24 -15 24 -10 0 -15 10 -15 30 0 20 -5 30 -15 30 -11 0
-15 12 -15 49 0 31 -5 51 -12 53 -10 4 -14 126 -16 556 l-2 552 -229 0 -229 0
-6 -24z"/>
<path d="M16990 8425 l0 -925 235 0 235 0 0 925 0 925 -235 0 -235 0 0 -925z"/>
<path d="M17888 9343 c-17 -4 -18 -40 -18 -573 0 -492 2 -571 15 -584 11 -10
15 -36 15 -85 0 -56 3 -71 15 -71 11 0 15 -12 15 -45 0 -33 4 -45 15 -45 10 0
15 -10 15 -30 0 -20 5 -30 15 -30 8 0 15 -7 15 -15 0 -8 4 -15 9 -15 5 0 12
-13 16 -30 4 -16 13 -30 21 -30 8 0 14 -5 14 -11 0 -14 145 -159 159 -159 6 0
11 -7 11 -15 0 -8 9 -15 19 -15 11 0 26 -7 34 -15 8 -7 26 -17 41 -21 14 -3
26 -10 26 -15 0 -5 14 -9 30 -9 20 0 30 -5 30 -15 0 -11 11 -15 41 -15 23 0
47 -7 55 -15 13 -12 54 -15 239 -15 185 0 226 3 239 15 8 8 32 15 55 15 30 0
41 4 41 15 0 10 10 15 30 15 20 0 30 5 30 15 0 10 10 15 30 15 20 0 30 5 30
15 0 9 9 15 24 15 13 0 26 7 30 15 3 8 12 15 21 15 8 0 15 7 15 15 0 8 5 15
11 15 14 0 123 110 132 133 3 9 11 17 17 17 5 0 10 11 10 25 0 15 6 25 14 25
8 0 17 14 21 30 4 17 11 30 16 30 5 0 9 14 9 30 0 20 5 30 15 30 11 0 15 12
15 44 0 26 6 51 14 59 11 11 15 45 17 133 1 66 5 142 9 169 5 28 4 54 -1 60
-11 11 -11 366 0 580 4 83 4 161 -1 174 -5 13 -5 28 1 35 4 6 11 35 13 63 5
52 5 53 -26 58 -17 3 -128 5 -246 3 l-215 -3 -3 -583 c-2 -502 -4 -586 -17
-599 -8 -8 -15 -23 -15 -34 0 -10 -4 -19 -9 -19 -5 0 -13 -10 -16 -22 -4 -11
-18 -31 -31 -43 -13 -12 -24 -27 -24 -34 0 -6 -7 -11 -15 -11 -9 0 -18 -7 -21
-15 -4 -8 -17 -15 -30 -15 -15 0 -24 -6 -24 -15 0 -11 -12 -15 -45 -15 -33 0
-45 -4 -45 -15 0 -12 -17 -15 -90 -15 -73 0 -90 3 -90 15 0 11 -11 15 -40 15
-29 0 -40 4 -40 15 0 8 -9 15 -20 15 -11 0 -20 4 -20 10 0 5 -11 12 -25 16
-14 3 -25 12 -25 20 0 8 -7 14 -15 14 -9 0 -15 9 -15 25 0 16 -6 25 -15 25 -8
0 -15 9 -15 19 0 11 -6 26 -14 33 -8 8 -15 43 -18 83 -2 41 -9 70 -16 73 -9 3
-12 132 -12 533 l0 529 -217 -1 c-120 -1 -226 -3 -235 -6z"/>
</g>
</svg>
